<svg width="16" height="17" viewBox="0 0 16 17" fill="none" xmlns="http://www.w3.org/2000/svg">
<g clip-path="url(#clip0_148_754)">
<path d="M7.40667 16.1667C7.32937 16.1666 7.25267 16.153 7.18 16.1267C7.03983 16.0753 6.92095 15.9785 6.84238 15.8515C6.76381 15.7246 6.73011 15.575 6.74667 15.4267L7.26 10.7H3.33334C3.21222 10.7002 3.09335 10.6674 2.98948 10.6051C2.88561 10.5428 2.80067 10.4534 2.74378 10.3465C2.6869 10.2395 2.66021 10.1191 2.66659 9.9982C2.67297 9.87725 2.71218 9.76033 2.78 9.65999L8.04 1.79332C8.1232 1.67021 8.24513 1.57842 8.38644 1.53253C8.52776 1.48663 8.68035 1.48926 8.82 1.53999C8.95426 1.58983 9.06889 1.68158 9.14694 1.80165C9.22498 1.92172 9.26229 2.06373 9.25334 2.20666L8.74 6.96666H12.6667C12.7878 6.96647 12.9067 6.99929 13.0105 7.06157C13.1144 7.12386 13.1993 7.21326 13.2562 7.32018C13.3131 7.4271 13.3398 7.5475 13.3334 7.66845C13.327 7.78939 13.2878 7.90631 13.22 8.00666L7.96 15.8733C7.89885 15.9638 7.81641 16.0379 7.71993 16.089C7.62344 16.1402 7.51587 16.1668 7.40667 16.1667ZM4.58 9.36666H8C8.09303 9.36688 8.18499 9.38656 8.26995 9.42445C8.35491 9.46234 8.43101 9.51759 8.49334 9.58666C8.55625 9.65666 8.60363 9.73918 8.63235 9.82881C8.66108 9.91843 8.6705 10.0131 8.66 10.1067L8.36 12.8733L11.42 8.29999H8C7.90593 8.30056 7.8128 8.28121 7.72673 8.24322C7.64067 8.20523 7.56362 8.14945 7.50065 8.07956C7.43768 8.00966 7.39022 7.92723 7.36138 7.83768C7.33254 7.74813 7.32299 7.65349 7.33334 7.55999L7.63334 4.79332L4.58 9.36666Z" fill="#7C7F82"/>
</g>
<defs>
<clipPath id="clip0_148_754">
<rect width="16" height="16" fill="white" transform="translate(0 0.833328)"/>
</clipPath>
</defs>
</svg>
