<svg width="20" height="20" viewBox="0 0 20 20" fill="none" xmlns="http://www.w3.org/2000/svg">
<g clip-path="url(#clip0_1607_2305)">
<path d="M4.3033 12.1725L13.3112 6.97179C13.7286 6.73078 14.2621 6.87374 14.5032 7.29118C14.7442 7.70863 14.6012 8.24216 14.1838 8.48317L5.1759 13.6839C4.75846 13.9249 4.22492 13.7819 3.98391 13.3645C3.7429 12.947 3.88586 12.4135 4.3033 12.1725Z" fill="white"/>
<path d="M7.78313 5.39164C7.96692 5.28553 8.18988 5.24587 8.41311 5.29675L14.3308 6.64604C14.5695 6.70053 14.7745 6.85257 14.8955 7.06564C15.0163 7.27841 15.0425 7.53251 14.9671 7.76551L13.071 13.6261C12.9225 14.0846 12.4305 14.3361 11.972 14.1877C11.5135 14.0393 11.2621 13.5472 11.4105 13.0887L13.0132 8.13549L8.02515 6.99826C7.55538 6.89104 7.26115 6.4233 7.36837 5.95353C7.42473 5.70698 7.58 5.50891 7.78313 5.39164Z" fill="white"/>
</g>
<defs>
<clipPath id="clip0_1607_2305">
<rect width="20" height="20" fill="white"/>
</clipPath>
</defs>
</svg>
