<svg width="20" height="22" viewBox="0 0 20 22" fill="none" xmlns="http://www.w3.org/2000/svg">
<path d="M5.75 4.75C5.34 4.75 5 4.41 5 4V1C5 0.59 5.34 0.25 5.75 0.25C6.16 0.25 6.5 0.59 6.5 1V4C6.5 4.41 6.16 4.75 5.75 4.75Z" fill="#FF7A00"/>
<path d="M13.75 4.75C13.34 4.75 13 4.41 13 4V1C13 0.59 13.34 0.25 13.75 0.25C14.16 0.25 14.5 0.59 14.5 1V4C14.5 4.41 14.16 4.75 13.75 4.75Z" fill="#FF7A00"/>
<path d="M6.25 13.5023C6.12 13.5023 5.99 13.4723 5.87 13.4223C5.74 13.3723 5.64 13.3023 5.54 13.2123C5.36 13.0223 5.25 12.7723 5.25 12.5023C5.25 12.3723 5.28 12.2423 5.33 12.1223C5.38 12.0023 5.45 11.8923 5.54 11.7923C5.64 11.7023 5.74 11.6323 5.87 11.5823C6.23 11.4323 6.68 11.5123 6.96 11.7923C7.14 11.9823 7.25 12.2423 7.25 12.5023C7.25 12.5623 7.24 12.6323 7.23 12.7023C7.22 12.7623 7.2 12.8223 7.17 12.8823C7.15 12.9423 7.12 13.0023 7.08 13.0623C7.05 13.1123 7 13.1623 6.96 13.2123C6.77 13.3923 6.51 13.5023 6.25 13.5023Z" fill="#FF7A00"/>
<path d="M9.75 13.4989C9.62 13.4989 9.49 13.4689 9.37 13.4189C9.24 13.3689 9.14 13.2989 9.04 13.2089C8.86 13.0189 8.75 12.7689 8.75 12.4989C8.75 12.3689 8.78 12.2389 8.83 12.1189C8.88 11.9989 8.95 11.8889 9.04 11.7889C9.14 11.6989 9.24 11.6289 9.37 11.5789C9.73 11.4189 10.18 11.5089 10.46 11.7889C10.64 11.9789 10.75 12.2389 10.75 12.4989C10.75 12.5589 10.74 12.6289 10.73 12.6989C10.72 12.7589 10.7 12.8189 10.67 12.8789C10.65 12.9389 10.62 12.9989 10.58 13.0589C10.55 13.1089 10.5 13.1589 10.46 13.2089C10.27 13.3889 10.01 13.4989 9.75 13.4989Z" fill="#FF7A00"/>
<path d="M13.25 13.4989C13.12 13.4989 12.99 13.4689 12.87 13.4189C12.74 13.3689 12.64 13.2989 12.54 13.2089C12.5 13.1589 12.46 13.1089 12.42 13.0589C12.38 12.9989 12.35 12.9389 12.33 12.8789C12.3 12.8189 12.28 12.7589 12.27 12.6989C12.26 12.6289 12.25 12.5589 12.25 12.4989C12.25 12.2389 12.36 11.9789 12.54 11.7889C12.64 11.6989 12.74 11.6289 12.87 11.5789C13.24 11.4189 13.68 11.5089 13.96 11.7889C14.14 11.9789 14.25 12.2389 14.25 12.4989C14.25 12.5589 14.24 12.6289 14.23 12.6989C14.22 12.7589 14.2 12.8189 14.17 12.8789C14.15 12.9389 14.12 12.9989 14.08 13.0589C14.05 13.1089 14 13.1589 13.96 13.2089C13.77 13.3889 13.51 13.4989 13.25 13.4989Z" fill="#FF7A00"/>
<path d="M6.25 17.003C6.12 17.003 5.99 16.9731 5.87 16.9231C5.75 16.8731 5.64 16.803 5.54 16.713C5.36 16.523 5.25 16.263 5.25 16.003C5.25 15.873 5.28 15.743 5.33 15.623C5.38 15.493 5.45 15.3831 5.54 15.2931C5.91 14.9231 6.59 14.9231 6.96 15.2931C7.14 15.4831 7.25 15.743 7.25 16.003C7.25 16.263 7.14 16.523 6.96 16.713C6.77 16.893 6.51 17.003 6.25 17.003Z" fill="#FF7A00"/>
<path d="M9.75 17.003C9.49 17.003 9.23 16.893 9.04 16.713C8.86 16.523 8.75 16.263 8.75 16.003C8.75 15.873 8.78 15.743 8.83 15.623C8.88 15.493 8.95 15.3831 9.04 15.2931C9.41 14.9231 10.09 14.9231 10.46 15.2931C10.55 15.3831 10.62 15.493 10.67 15.623C10.72 15.743 10.75 15.873 10.75 16.003C10.75 16.263 10.64 16.523 10.46 16.713C10.27 16.893 10.01 17.003 9.75 17.003Z" fill="#FF7A00"/>
<path d="M13.25 17.0009C12.99 17.0009 12.73 16.8909 12.54 16.7109C12.45 16.6209 12.38 16.5109 12.33 16.3809C12.28 16.2609 12.25 16.1309 12.25 16.0009C12.25 15.8709 12.28 15.7409 12.33 15.6209C12.38 15.4909 12.45 15.3809 12.54 15.2909C12.77 15.0609 13.12 14.9509 13.44 15.0209C13.51 15.0309 13.57 15.0509 13.63 15.0809C13.69 15.1009 13.75 15.1309 13.81 15.1709C13.86 15.2009 13.91 15.2509 13.96 15.2909C14.14 15.4809 14.25 15.7409 14.25 16.0009C14.25 16.2609 14.14 16.5209 13.96 16.7109C13.77 16.8909 13.51 17.0009 13.25 17.0009Z" fill="#FF7A00"/>
<path d="M18.25 8.83594H1.25C0.84 8.83594 0.5 8.49594 0.5 8.08594C0.5 7.67594 0.84 7.33594 1.25 7.33594H18.25C18.66 7.33594 19 7.67594 19 8.08594C19 8.49594 18.66 8.83594 18.25 8.83594Z" fill="#FF7A00"/>
<path d="M13.75 21.75H5.75C2.1 21.75 0 19.65 0 16V7.5C0 3.85 2.1 1.75 5.75 1.75H13.75C17.4 1.75 19.5 3.85 19.5 7.5V16C19.5 19.65 17.4 21.75 13.75 21.75ZM5.75 3.25C2.89 3.25 1.5 4.64 1.5 7.5V16C1.5 18.86 2.89 20.25 5.75 20.25H13.75C16.61 20.25 18 18.86 18 16V7.5C18 4.64 16.61 3.25 13.75 3.25H5.75Z" fill="#FF7A00"/>
</svg>
