<svg width="393" height="886" viewBox="0 0 393 886" fill="none" xmlns="http://www.w3.org/2000/svg">
<g clip-path="url(#clip0_1435_6220)">
<rect width="393" height="886" fill="white"/>
<path d="M184.944 901.002C173.105 901.002 162.28 896.38 155.245 888.325C147.968 879.994 146.066 869.616 150.03 859.856L150.246 859.334C154.171 849.919 148.204 841.769 141.891 833.143C139.06 829.273 136.129 825.269 134.197 821.164C129.048 810.213 126.891 796.328 128.291 783.069C130.183 765.083 139.532 748.02 153.94 736.267C175.153 718.959 208.916 711.627 244.256 716.655C247.493 717.117 250.775 717.674 253.952 718.211C263.547 719.842 273.473 721.528 283.45 720.755C298.279 719.606 311.985 713.198 325.238 707C329.288 705.108 333.473 703.146 337.624 701.374C364.352 689.947 391.903 685.897 415.213 689.977C445.961 695.357 468.458 715.466 471.199 740.006C471.781 745.235 469.507 752.065 467.099 759.302C464.228 767.923 461.262 776.836 463.515 782.798C464.755 786.085 468.283 791.329 472.749 797.969C483.443 813.867 498.087 835.637 497.555 853.864C496.838 878.509 490.243 887.141 481.125 899.085L479.755 900.886L479.203 900.6L480.573 898.798C489.641 886.925 496.19 878.348 496.903 853.849C497.43 835.767 482.836 814.068 472.177 798.225C467.691 791.555 464.148 786.291 462.888 782.954C460.58 776.841 463.571 767.848 466.466 759.156C468.86 751.97 471.118 745.18 470.546 740.051C467.836 715.742 445.544 695.829 415.078 690.494C391.913 686.439 364.517 690.469 337.925 701.841C333.785 703.612 329.604 705.565 325.559 707.457C312.246 713.684 298.48 720.123 283.51 721.282C273.438 722.06 263.462 720.369 253.821 718.733C250.65 718.196 247.373 717.639 244.146 717.177C209.007 712.179 175.459 719.456 154.396 736.644C140.099 748.311 130.82 765.249 128.938 783.109C127.553 796.287 129.691 810.088 134.805 820.968C136.717 825.033 139.632 829.012 142.448 832.867C148.56 841.217 154.883 849.854 150.863 859.509L150.648 860.026C146.753 869.621 148.62 879.824 155.777 888.014C162.692 895.928 173.321 900.47 184.949 900.47V901.007L184.944 901.002Z" fill="#CDCDCD"/>
<path d="M222.322 901.004C213.916 901.004 206.228 897.646 201.234 891.8C196.07 885.753 194.72 878.22 197.531 871.129L197.681 870.753C200.441 863.973 196.236 858.096 191.78 851.868C189.772 849.063 187.7 846.168 186.33 843.187C182.681 835.253 181.156 825.191 182.144 815.585C183.484 802.553 190.108 790.192 200.316 781.676C215.346 769.135 239.264 763.82 264.296 767.464C266.589 767.795 268.912 768.202 271.156 768.593C277.941 769.772 284.951 770.987 291.997 770.43C302.471 769.602 312.156 764.965 321.525 760.488C324.391 759.118 327.357 757.698 330.293 756.413C349.222 748.138 368.739 745.207 385.249 748.158C407.044 752.057 422.993 766.636 424.93 784.426C425.346 788.22 423.73 793.173 422.024 798.412C419.997 804.64 417.904 811.074 419.49 815.37C420.363 817.738 422.857 821.532 426.014 826.33C433.587 837.842 443.955 853.605 443.578 866.813C443.071 884.664 438.399 890.917 431.941 899.573L430.972 900.873L430.42 900.582L431.389 899.282C437.797 890.701 442.424 884.503 442.926 866.803C443.297 853.74 432.979 838.053 425.447 826.601C422.27 821.773 419.761 817.959 418.868 815.535C417.227 811.089 419.349 804.575 421.397 798.272C423.088 793.078 424.684 788.175 424.277 784.476C422.365 766.927 406.623 752.544 385.109 748.695C368.744 745.764 349.383 748.68 330.589 756.9C327.663 758.18 324.702 759.595 321.842 760.965C312.412 765.477 302.666 770.139 292.057 770.977C284.916 771.544 277.855 770.314 271.025 769.13C268.782 768.739 266.464 768.337 264.185 768.006C239.359 764.393 215.652 769.652 200.773 782.067C190.676 790.493 184.121 802.733 182.792 815.636C181.813 825.16 183.324 835.132 186.937 842.991C188.287 845.927 190.344 848.802 192.337 851.587C196.673 857.645 201.154 863.913 198.298 870.928L198.148 871.305C195.403 878.225 196.718 885.577 201.761 891.484C206.634 897.19 214.127 900.462 222.322 900.462V901.009V901.004Z" fill="#CDCDCD"/>
<path d="M190.505 -1.54614C202.223 -3.22731 213.594 -0.191174 221.704 6.78441C230.09 13.9959 233.442 23.9976 230.908 34.2251L230.767 34.7721C228.223 44.6483 235.284 51.8698 242.756 59.5128C246.109 62.9404 249.576 66.4884 252.07 70.2773C258.725 80.3894 262.825 93.8287 263.327 107.148C264.004 125.224 257.174 143.436 244.583 157.116C226.045 177.265 193.661 189.314 157.965 189.354C154.693 189.354 151.366 189.274 148.144 189.189C138.413 188.938 128.352 188.677 118.586 190.86C104.067 194.102 91.4111 202.392 79.1712 210.411C75.4324 212.86 71.5633 215.395 67.7091 217.738C42.878 232.844 16.1751 240.763 -7.47666 240.035C-38.6761 239.072 -63.8033 222.365 -69.996 198.458C-71.3158 193.369 -70.0361 186.278 -68.6762 178.775C-67.0602 169.838 -65.3891 160.594 -68.4654 155.008C-70.1566 151.932 -74.3971 147.24 -79.7618 141.303C-92.5939 127.091 -110.183 107.619 -112.246 89.5028C-115.031 65.008 -109.732 55.5282 -102.4 42.4101L-101.296 40.4328L-100.709 40.6386L-101.813 42.6159C-109.104 55.6487 -114.369 65.0732 -111.599 89.4226C-109.551 107.393 -92.0268 126.8 -79.2248 140.972C-73.8401 146.934 -69.5845 151.646 -67.8632 154.767C-64.7116 160.493 -66.3978 169.817 -68.0288 178.831C-69.3737 186.283 -70.6484 193.324 -69.3536 198.322C-63.2211 221.999 -38.3248 238.545 -7.41143 239.498C16.0948 240.226 42.6422 232.347 67.3528 217.312C71.1969 214.973 75.0611 212.444 78.7948 209.995C91.0899 201.94 103.802 193.615 118.455 190.343C128.316 188.14 138.429 188.401 148.204 188.652C151.416 188.737 154.743 188.822 158 188.817C193.491 188.777 225.669 176.813 244.076 156.805C256.572 143.225 263.352 125.144 262.679 107.193C262.182 93.9492 258.108 80.5952 251.498 70.5533C249.029 66.7996 245.577 63.2716 242.244 59.8641C235.008 52.467 227.525 44.8139 230.135 34.6868L230.27 34.1448C232.765 24.0929 229.467 14.2618 221.222 7.17083C213.258 0.315686 202.087 -2.66525 190.575 -1.01419L190.5 -1.54614H190.505Z" fill="#CDCDCD"/>
<path d="M12.6238 366.509L-24.6562 315.398L-31.4935 320.386L5.78657 371.496L12.6238 366.509Z" fill="#090909"/>
<path d="M63.029 343.511C63.987 344.901 66.0816 344.773 66.8616 343.274L79.1354 319.729C79.4713 319.173 79.7727 318.601 80.0318 318.011C81.9777 313.581 81.7201 308.303 78.9132 303.959L60.7496 275.868L60.7547 275.851L60.6091 275.652L60.5783 275.61C60.5578 275.581 60.5325 275.553 60.5091 275.527L57.1643 271.118C51.3167 263.414 41.1223 260.06 32.0383 263.379C31.6711 263.513 31.3072 263.658 30.9446 263.81L7.87878 272.063C6.29618 272.627 5.65769 274.527 6.58066 275.935L15.7071 289.87L-23.3612 311.738C-24.8927 312.596 -25.3279 314.598 -24.2944 316.015L12.8482 366.937C13.689 368.09 15.3075 368.331 16.4479 367.473L58.4325 336.819L63.0331 343.516L63.029 343.511Z" fill="#708CF5"/>
<path d="M12.704 367.031L-24.4386 316.109C-24.9615 315.392 -25.1534 314.485 -24.963 313.618C-24.7726 312.752 -24.2205 312.009 -23.4505 311.576L15.4565 289.8L6.43029 276.02C5.96163 275.307 5.84734 274.43 6.12124 273.618C6.39233 272.809 7.00904 272.178 7.81606 271.891L30.8819 263.638C31.2368 263.487 31.6083 263.341 31.9755 263.206C40.9225 259.937 51.3367 263.143 57.2992 271.004L60.6735 275.447C60.6878 275.467 60.7001 275.484 60.7145 275.503L60.7494 275.551L60.8909 275.745C60.9052 275.765 60.918 275.794 60.924 275.82L79.0555 303.861C81.8066 308.117 82.2327 313.431 80.1879 318.08C79.926 318.671 79.6223 319.259 79.2801 319.823L67.0126 343.359C66.6176 344.117 65.872 344.6 65.0194 344.653C64.1667 344.707 63.3562 344.316 62.8832 343.614L58.3865 337.066L16.548 367.613C15.961 368.054 15.2375 368.237 14.5074 368.128C13.7774 368.018 13.138 367.632 12.7033 367.036L12.704 367.031ZM60.43 275.698L60.4075 275.667C60.3924 275.652 60.3772 275.637 60.3649 275.621L57.0201 271.212C51.1479 263.474 40.898 260.316 32.0937 263.534C31.7321 263.664 31.3654 263.811 31.0106 263.962L7.93421 272.218C7.22999 272.469 6.69017 273.022 6.45245 273.73C6.21474 274.437 6.31378 275.205 6.72168 275.829L15.8481 289.765C15.8768 289.804 15.8838 289.855 15.8713 289.903C15.8589 289.95 15.8305 289.988 15.787 290.011L-23.2812 311.879C-23.9663 312.263 -24.4581 312.923 -24.6257 313.691C-24.7932 314.459 -24.623 315.266 -24.1596 315.901L12.9831 366.823C13.3625 367.343 13.9197 367.682 14.5553 367.774C15.193 367.869 15.8257 367.709 16.3368 367.323L58.3214 336.669C58.358 336.643 58.4048 336.63 58.4534 336.638C58.4992 336.647 58.5407 336.669 58.5666 336.71L63.1672 343.407C63.5746 344.019 64.2663 344.341 64.9956 344.296C65.7249 344.251 66.3652 343.835 66.703 343.188L78.9769 319.644C79.3164 319.082 79.6149 318.511 79.8669 317.935C81.863 313.391 81.4498 308.201 78.7628 304.044L60.5992 275.954C60.5869 275.937 60.5823 275.919 60.5756 275.898L60.4649 275.746L60.428 275.695L60.43 275.698Z" fill="#090909"/>
<path d="M86.3272 338.919C90.5531 338.365 94.618 336.262 96.7402 332.44L94.6645 331.046C94.6645 331.046 98.5745 325.412 102.183 322.328C102.953 320.65 96.3583 317.372 96.3583 317.372C96.3583 317.372 98.1679 316.853 99.0719 316.599C100.031 316.325 101.043 316.018 101.709 315.278C102.376 314.538 102.493 313.212 101.685 312.629C100.888 312.056 96.7233 312.906 95.6614 312.992C89.2616 313.512 83.5004 317.766 78.8428 321.891C76.3621 324.088 48.0295 342.906 47.1484 344.255C41.8163 352.404 49.2218 362.87 58.6781 360.547C60.3859 359.882 62.0106 359.033 63.5171 358.016C65.5573 356.645 80.9147 340.404 81.4794 339.914C82.2715 339.229 83.3077 339.084 84.3517 339.034C85.0245 338.999 85.7038 339.004 86.3244 338.921L86.3272 338.919Z" fill="#F8EEE2"/>
<path d="M47.3194 356.561C47.2866 356.516 47.2538 356.471 47.2189 356.424C44.5737 352.685 44.4894 347.987 46.9967 344.155C47.4677 343.437 54.2521 338.756 64.549 331.697C71.2671 327.09 77.6163 322.739 78.7214 321.756C83.0988 317.879 88.9791 313.357 95.6416 312.813C95.8966 312.791 96.3527 312.725 96.8806 312.646C99.1172 312.311 101.176 312.045 101.783 312.481C102.134 312.733 102.357 313.139 102.409 313.618C102.476 314.241 102.256 314.919 101.834 315.386C101.113 316.187 100.005 316.504 99.1137 316.758L96.8248 317.411C98.3428 318.199 103.063 320.808 102.334 322.395C102.325 322.419 102.309 322.438 102.287 322.455C99.0561 325.212 95.5403 330.094 94.9011 330.995L96.8307 332.288C96.9052 332.337 96.9317 332.438 96.8847 332.516C94.9095 336.067 91.0655 338.461 86.341 339.082C85.9011 339.14 85.4227 339.157 84.9596 339.172C84.757 339.178 84.5565 339.186 84.3531 339.197C83.206 339.254 82.2962 339.418 81.5843 340.036C81.4399 340.163 80.2239 341.425 78.5434 343.172C73.8528 348.049 65.1193 357.132 63.6052 358.151C62.0826 359.175 60.4418 360.032 58.7311 360.698C54.3179 361.781 49.9688 360.194 47.3132 356.553L47.3194 356.561ZM101.824 313.011C101.759 312.921 101.677 312.838 101.576 312.765C101.033 312.374 98.3621 312.775 96.929 312.989C96.3731 313.072 95.9345 313.138 95.6669 313.161C89.1082 313.693 83.287 318.172 78.9497 322.016C77.8249 323.013 71.4701 327.368 64.7436 331.982C56.7788 337.442 47.7512 343.631 47.2858 344.345C44.8602 348.052 44.9423 352.605 47.5021 356.221C50.0752 359.832 54.3254 361.431 58.6276 360.373C60.2935 359.722 61.9097 358.879 63.4126 357.869C64.8938 356.87 73.6117 347.807 78.2939 342.936C80.0457 341.115 81.2004 339.911 81.356 339.776C82.189 339.052 83.2802 338.907 84.3347 338.853C84.5381 338.842 84.7435 338.834 84.9461 338.829C85.4217 338.814 85.8674 338.799 86.292 338.743C90.8463 338.143 94.5543 335.869 96.5002 332.49L94.5576 331.185C94.5217 331.16 94.493 331.12 94.4832 331.071C94.4755 331.025 94.4851 330.98 94.5114 330.939C94.5525 330.883 98.4524 325.282 102.028 322.218C102.448 321.093 98.735 318.749 96.2693 317.524C96.2071 317.491 96.1656 317.423 96.1742 317.352C96.1807 317.278 96.2295 317.221 96.3001 317.2L99.0137 316.426C99.8612 316.183 100.917 315.882 101.571 315.155C101.924 314.765 102.115 314.177 102.057 313.655C102.035 313.465 101.978 313.222 101.822 313.008L101.824 313.011Z" fill="#090909"/>
<path d="M92.6543 318.456L91.3442 326.94L101.155 325.409L103.821 322.262L96.4784 317.398L92.6543 318.456Z" fill="#090909"/>
<path d="M90.9493 331.638C89.7619 330.488 89.7342 328.596 90.881 327.41L102.117 315.817C103.266 314.63 105.158 314.602 106.344 315.749C107.531 316.898 107.559 318.79 106.412 319.976L95.1764 331.569C94.0268 332.757 92.1346 332.784 90.9493 331.638Z" fill="#FF8D1D"/>
<path d="M90.468 331.35C90.0866 330.827 89.8757 330.201 89.8643 329.542C89.8519 328.698 90.1687 327.898 90.7545 327.29L101.99 315.697C102.578 315.091 103.366 314.749 104.213 314.734C105.057 314.722 105.856 315.039 106.464 315.625C107.07 316.213 107.412 317.001 107.427 317.847C107.439 318.691 107.122 319.491 106.536 320.099L95.3007 331.693C94.0862 332.945 92.0813 332.977 90.8265 331.765C90.6946 331.637 90.5746 331.496 90.468 331.35ZM106.543 316.24C106.448 316.11 106.341 315.986 106.224 315.874C105.683 315.351 104.973 315.068 104.219 315.079C103.465 315.091 102.765 315.395 102.242 315.935L91.0061 327.529C90.4831 328.07 90.2001 328.78 90.2117 329.534C90.2232 330.288 90.5271 330.988 91.0679 331.511C92.1838 332.592 93.9688 332.565 95.0499 331.449L106.286 319.856C106.809 319.315 107.092 318.604 107.077 317.853C107.067 317.266 106.88 316.708 106.54 316.242L106.543 316.24Z" fill="#090909"/>
<path d="M110.071 315.947L106.056 312.055C105.214 311.24 103.87 311.261 103.054 312.102L102.189 312.994C101.374 313.836 101.395 315.18 102.236 315.996L106.252 319.888C107.094 320.704 108.438 320.683 109.253 319.841L110.118 318.949C110.934 318.107 110.913 316.763 110.071 315.947Z" fill="#FFF9F3"/>
<path d="M101.87 315.819C101.224 314.933 101.29 313.683 102.075 312.87L102.942 311.974C103.822 311.066 105.277 311.042 106.188 311.924L110.203 315.818C111.112 316.697 111.136 318.153 110.253 319.063L109.386 319.959C108.507 320.867 107.049 320.888 106.141 320.009L102.125 316.115C102.027 316.023 101.943 315.925 101.867 315.821L101.87 315.819ZM110.185 316.318C110.119 316.228 110.047 316.147 109.966 316.064L105.95 312.171C105.18 311.423 103.942 311.443 103.196 312.216L102.329 313.111C101.583 313.883 101.602 315.114 102.373 315.865L106.389 319.759C107.159 320.507 108.397 320.486 109.143 319.714L110.01 318.818C110.679 318.129 110.732 317.068 110.185 316.318Z" fill="#090909"/>
<path d="M104.449 300.096L105.618 301.23L103.402 303.516L102.233 302.383C101.66 301.828 101.649 300.915 102.201 300.346L102.409 300.131C102.964 299.559 103.876 299.547 104.446 300.099L104.449 300.096Z" fill="#F8EEE2"/>
<path d="M101.948 302.296C101.753 302.029 101.644 301.708 101.639 301.371C101.632 300.941 101.793 300.531 102.093 300.221L102.301 300.005C102.919 299.364 103.945 299.348 104.588 299.969L105.76 301.104C105.792 301.137 105.814 301.177 105.814 301.225C105.814 301.272 105.797 301.314 105.765 301.346L103.549 303.635C103.516 303.667 103.476 303.688 103.428 303.688C103.381 303.688 103.339 303.671 103.306 303.639L102.134 302.504C102.065 302.439 102.006 302.37 101.95 302.294L101.948 302.296ZM105.394 301.234L104.349 300.221C103.848 299.734 103.044 299.748 102.557 300.249L102.348 300.466C102.113 300.71 101.984 301.029 101.991 301.368C101.995 301.705 102.132 302.023 102.377 302.258L103.421 303.271L105.394 301.234Z" fill="#090909"/>
<path d="M115.358 301.255L121.497 307.205L109.875 319.197L103.736 313.246C100.74 310.343 100.665 305.55 103.568 302.554L104.663 301.425C107.567 298.429 112.359 298.353 115.355 301.257L115.358 301.255Z" fill="#FF8D1D"/>
<path d="M102.767 312.375C100.591 309.393 100.81 305.176 103.463 302.435L104.559 301.304C107.529 298.242 112.435 298.166 115.497 301.13L121.637 307.079C121.706 307.145 121.709 307.255 121.641 307.327L110.019 319.318C109.987 319.35 109.946 319.371 109.899 319.371C109.851 319.371 109.809 319.355 109.777 319.322L103.637 313.373C103.315 313.061 103.024 312.727 102.767 312.375ZM121.271 307.209L115.259 301.382C112.333 298.546 107.646 298.622 104.813 301.546L103.717 302.677C100.881 305.602 100.955 310.286 103.881 313.122L109.892 318.95L121.271 307.209Z" fill="#090909"/>
<path d="M121.514 307.196L109.892 319.188C114.646 323.792 117.824 329.791 119.001 336.37L121.604 350.934L153.61 317.902L138.975 315.759C132.363 314.789 126.268 311.8 121.514 307.196Z" fill="#F8EEE2" stroke="#090909" stroke-width="0.347977" stroke-linecap="round" stroke-linejoin="round"/>
<path d="M121.862 351.366C124.087 353.522 133.091 347.84 141.973 338.676C150.856 329.511 156.253 320.333 154.028 318.177C151.803 316.021 142.799 321.703 133.917 330.868C125.035 340.033 119.638 349.21 121.862 351.366Z" fill="#FFF9F3" stroke="#090909" stroke-width="0.347977" stroke-linecap="round" stroke-linejoin="round"/>
<path d="M125.369 347.847C127.156 349.579 134.391 345.013 141.529 337.647C148.668 330.282 153.006 322.907 151.218 321.175C149.431 319.443 142.196 324.01 135.058 331.375C127.919 338.74 123.581 346.115 125.369 347.847Z" fill="#F8EEE2"/>
<mask id="mask0_1435_6220" style="mask-type:luminance" maskUnits="userSpaceOnUse" x="124" y="320" width="28" height="29">
<path d="M125.365 347.847C127.152 349.579 134.387 345.013 141.525 337.647C148.664 330.282 153.002 322.907 151.214 321.175C149.427 319.443 142.192 324.01 135.054 331.375C127.915 338.74 123.578 346.115 125.365 347.847Z" fill="white"/>
</mask>
<g mask="url(#mask0_1435_6220)">
<path d="M134.688 325.436L138.988 329.6C140.741 331.302 140.786 334.103 139.087 335.859C137.385 337.613 134.584 337.658 132.828 335.958L128.528 331.794L134.686 325.438L134.688 325.436Z" fill="#FF8D1D" stroke="#090909" stroke-width="0.347977" stroke-linecap="round" stroke-linejoin="round"/>
</g>
<path d="M125.369 347.847C127.156 349.579 134.391 345.013 141.529 337.647C148.668 330.282 153.006 322.907 151.218 321.175C149.431 319.443 142.196 324.01 135.058 331.375C127.919 338.74 123.581 346.115 125.369 347.847Z" stroke="#090909" stroke-width="0.347977" stroke-linecap="round" stroke-linejoin="round"/>
<path d="M110.923 320.492C110.873 320.424 110.878 320.33 110.94 320.268L122.701 308.278C122.769 308.212 122.879 308.209 122.948 308.275C123.018 308.34 123.018 308.452 122.952 308.522L111.191 320.511C111.123 320.578 111.013 320.581 110.944 320.515C110.938 320.507 110.932 320.498 110.928 320.493L110.923 320.492Z" fill="#090909"/>
<path d="M99.546 322.349L104.626 326.078C105.521 326.735 105.717 327.997 105.058 328.894L105.017 328.95C104.36 329.845 103.098 330.041 102.2 329.382L97.1202 325.653C96.2254 324.996 96.0294 323.734 96.6884 322.836L96.7296 322.78C97.3865 321.886 98.6484 321.69 99.546 322.349Z" fill="#F8EEE2"/>
<path d="M96.5649 325.313C96.3619 325.034 96.2264 324.707 96.1719 324.354C96.0808 323.775 96.2235 323.197 96.568 322.73L96.6091 322.674C97.3216 321.703 98.6969 321.492 99.666 322.206L104.746 325.935C105.72 326.65 105.929 328.018 105.214 328.992L105.173 329.048C104.46 330.02 103.085 330.23 102.116 329.516L97.0361 325.787C96.8527 325.654 96.6934 325.494 96.5621 325.315L96.5649 325.313ZM104.94 326.608C104.831 326.459 104.698 326.324 104.541 326.209L99.4612 322.481C98.6437 321.88 97.4901 322.058 96.889 322.875L96.8479 322.931C96.5573 323.324 96.4388 323.811 96.5144 324.298C96.5901 324.786 96.8467 325.215 97.2424 325.503L102.322 329.232C103.14 329.833 104.293 329.655 104.895 328.837L104.936 328.782C105.423 328.121 105.399 327.238 104.94 326.608Z" fill="#090909"/>
<path d="M102.142 318.997L107.223 322.725C108.117 323.382 108.314 324.644 107.655 325.541L107.614 325.598C106.957 326.492 105.695 326.689 104.797 326.03L99.7167 322.301C98.8218 321.645 98.6256 320.383 99.2844 319.485L99.3256 319.429C99.9823 318.534 101.244 318.338 102.142 318.997Z" fill="#F8EEE2"/>
<path d="M99.1476 321.961C98.9446 321.683 98.8091 321.355 98.7546 321.003C98.6635 320.424 98.8062 319.846 99.1507 319.379L99.1918 319.323C99.5342 318.854 100.046 318.545 100.625 318.459C101.204 318.368 101.782 318.511 102.249 318.855L107.329 322.584C108.301 323.296 108.511 324.672 107.797 325.641L107.756 325.697C107.413 326.166 106.902 326.475 106.323 326.561C105.744 326.647 105.165 326.509 104.699 326.165L99.6188 322.436C99.4354 322.303 99.276 322.143 99.1448 321.963L99.1476 321.961ZM107.522 323.257C107.414 323.108 107.28 322.972 107.124 322.858L102.044 319.13C101.648 318.841 101.164 318.72 100.676 318.796C100.189 318.872 99.7603 319.128 99.4717 319.524L99.4306 319.58C99.14 319.973 99.0215 320.46 99.0971 320.947C99.1727 321.435 99.4294 321.863 99.8251 322.152L104.905 325.881C105.301 326.169 105.785 326.29 106.272 326.214C106.76 326.139 107.189 325.882 107.477 325.486L107.518 325.43C108.005 324.769 107.982 323.886 107.522 323.257Z" fill="#090909"/>
<path d="M101.737 331.355L101.727 331.37C101.078 332.253 99.8307 332.444 98.9457 331.797L95.4786 329.252C94.5963 328.603 94.4055 327.356 95.0521 326.471L95.062 326.455C95.7106 325.573 96.9584 325.382 97.8434 326.028L101.308 328.57C102.191 329.219 102.384 330.469 101.735 331.352L101.737 331.355Z" fill="#F8EEE2"/>
<path d="M94.9103 328.929C94.3689 328.187 94.3417 327.151 94.9116 326.374C95.6297 325.398 96.9848 325.189 97.9477 325.895L101.413 328.437C101.877 328.779 102.18 329.282 102.269 329.854C102.357 330.428 102.22 330.997 101.878 331.461L101.869 331.477C101.527 331.942 101.026 332.247 100.452 332.334C99.8779 332.421 99.309 332.284 98.8444 331.943L95.3774 329.398C95.194 329.265 95.0395 329.106 94.9103 328.929ZM101.599 329.111C101.49 328.962 101.359 328.83 101.206 328.721L97.7414 326.179C96.935 325.587 95.7967 325.763 95.2048 326.569C94.603 327.391 94.7785 328.53 95.5829 329.119L99.05 331.664C99.4387 331.949 99.916 332.066 100.398 331.994C100.88 331.923 101.299 331.664 101.584 331.276L101.594 331.26C101.879 330.871 101.996 330.394 101.922 329.909C101.876 329.615 101.764 329.344 101.596 329.113L101.599 329.111Z" fill="#090909"/>
<path d="M97.1181 330.458L98.8345 331.719C99.7292 332.376 99.925 333.638 99.2659 334.535L99.2247 334.591C98.5676 335.486 97.3057 335.682 96.4082 335.023L94.6917 333.762C93.797 333.105 93.6012 331.843 94.2604 330.946L94.3016 330.89C94.9586 329.995 96.2205 329.799 97.1181 330.458Z" fill="#F8EEE2"/>
<path d="M94.1311 333.436C93.928 333.157 93.7925 332.83 93.738 332.478C93.6469 331.898 93.7896 331.32 94.1341 330.854L94.1752 330.798C94.5176 330.328 95.0292 330.02 95.608 329.934C96.1876 329.842 96.7655 329.985 97.2321 330.33L98.9477 331.589C99.9196 332.302 100.13 333.677 99.4178 334.649L99.3767 334.705C99.0343 335.174 98.5256 335.481 97.9439 335.569C97.3643 335.66 96.7865 335.517 96.3199 335.173L94.6042 333.913C94.4209 333.78 94.2615 333.62 94.1303 333.441L94.1311 333.436ZM99.1413 332.262C99.0326 332.113 98.8994 331.978 98.7429 331.864L97.0273 330.604C96.6316 330.315 96.1474 330.195 95.6599 330.27C95.1724 330.346 94.7437 330.603 94.4551 330.998L94.414 331.054C94.1234 331.447 94.0049 331.934 94.0805 332.422C94.1562 332.909 94.4128 333.338 94.8085 333.626L96.5241 334.886C96.9198 335.175 97.404 335.295 97.8915 335.22C98.379 335.144 98.8077 334.887 99.0963 334.492L99.1374 334.436C99.6243 333.775 99.6006 332.892 99.1413 332.262Z" fill="#090909"/>
<path d="M96.0122 317.502C96.0122 317.502 98.1527 316.858 99.0575 316.599C100.017 316.326 101.029 316.018 101.695 315.278C102.361 314.538 102.479 313.212 101.671 312.63C100.874 312.057 96.7089 312.907 95.647 312.992" fill="#F8EEE2"/>
<path d="M96.0601 317.664L95.9602 317.332C95.9602 317.332 98.1006 316.689 99.0054 316.429C99.8529 316.186 100.909 315.885 101.563 315.158C101.915 314.768 102.107 314.18 102.049 313.658C102.021 313.389 101.913 313.016 101.566 312.765C101.022 312.374 98.3518 312.775 96.9186 312.989C96.3628 313.072 95.9242 313.138 95.6566 313.161C95.5583 313.168 95.4751 313.095 95.4673 313.001C95.4574 312.905 95.5302 312.822 95.6264 312.812C95.8815 312.79 96.3375 312.724 96.8655 312.645C99.102 312.31 101.161 312.044 101.768 312.481C102.119 312.732 102.342 313.138 102.394 313.617C102.461 314.24 102.24 314.918 101.819 315.385C101.098 316.186 99.99 316.503 99.0985 316.757C98.1937 317.017 96.056 317.659 96.056 317.659L96.0601 317.664Z" fill="#090909"/>
<path d="M90.3524 319.583C90.295 319.504 90.3145 319.395 90.3953 319.341C91.9538 318.23 95.813 317.362 95.9756 317.325C96.0685 317.304 96.1637 317.364 96.1841 317.457C96.2044 317.55 96.1447 317.645 96.0518 317.665C96.0107 317.674 92.0999 318.554 90.5975 319.624C90.5216 319.679 90.4126 319.66 90.3572 319.584L90.3524 319.583Z" fill="#090909"/>
<path d="M120.007 283.093C120.144 283.092 120.28 283.084 120.415 283.045C121.826 283.179 123.29 282.882 124.603 282.101C127.896 280.138 128.971 275.879 127.01 272.588C126.845 272.308 126.655 272.054 126.459 271.81C126.824 267.379 127.981 263.632 123.89 259.311C122.313 257.645 120.12 256.629 117.828 256.699C117.508 256.709 117.188 256.748 116.866 256.802C116.61 256.847 114.563 254.614 114.237 254.356C111.951 252.544 108.899 250.321 105.821 250.83C104.461 251.056 103.222 251.714 102.072 252.493C99.462 251.773 96.5469 252.831 94.8733 255.107L90.5499 260.996C90.9154 261.302 91.2546 261.649 91.5479 262.051L93.2089 264.328C93.0724 264.643 92.9367 264.953 92.7926 265.269C92.0591 266.885 91.0636 268.313 89.5711 269.32C95.8388 269.262 105.049 284.145 107.331 287.274C109.613 290.403 113.999 291.089 117.128 288.807C119.023 287.425 120.015 285.271 120.002 283.092L120.007 283.093Z" fill="#090909"/>
<path d="M89.4372 269.418C89.427 269.404 89.4147 269.387 89.4129 269.367C89.3895 269.293 89.417 269.213 89.4809 269.171C90.7949 268.285 91.8277 266.985 92.6409 265.195C92.7699 264.911 92.8933 264.631 93.0147 264.349L91.4132 262.153C91.1466 261.788 90.82 261.44 90.4427 261.13C90.3725 261.069 90.3585 260.967 90.4124 260.894L94.7358 255.005C96.4421 252.679 99.3707 251.599 102.042 252.303C102.935 251.708 104.27 250.911 105.793 250.661C108.746 250.174 111.65 252.088 114.346 254.226C114.461 254.318 114.749 254.612 115.112 254.981C115.645 255.522 116.627 256.52 116.866 256.63C117.219 256.57 117.531 256.537 117.821 256.528C120.086 256.456 122.342 257.429 124.014 259.195C127.583 262.966 127.21 266.382 126.813 270.001C126.751 270.572 126.686 271.162 126.635 271.759C126.847 272.026 127.012 272.264 127.156 272.503C128.131 274.135 128.407 276.048 127.942 277.891C127.477 279.733 126.32 281.283 124.691 282.256C123.4 283.025 121.928 283.363 120.433 283.226C120.355 283.244 120.271 283.258 120.182 283.267C120.142 285.514 119.051 287.632 117.24 288.953C114.038 291.288 109.536 290.584 107.2 287.382C106.899 286.969 106.486 286.361 105.959 285.591C102.66 280.761 94.9339 269.449 89.5837 269.501C89.5266 269.499 89.4734 269.473 89.4406 269.428L89.4372 269.418ZM91.6923 261.946L93.3533 264.223C93.3902 264.273 93.3977 264.337 93.3712 264.395C93.2347 264.71 93.0963 265.022 92.955 265.336C92.2013 267.001 91.2574 268.258 90.0795 269.165C95.5599 269.746 102.735 280.25 106.241 285.381C106.766 286.148 107.177 286.753 107.476 287.164C109.699 290.211 113.985 290.879 117.03 288.658C118.798 287.369 119.846 285.286 119.832 283.087C119.832 283.04 119.851 282.996 119.884 282.963C119.916 282.931 119.962 282.911 120.006 282.913C120.148 282.913 120.264 282.901 120.369 282.872C120.39 282.866 120.41 282.864 120.429 282.867C121.863 283.002 123.272 282.684 124.508 281.946C126.06 281.021 127.16 279.547 127.601 277.795C128.045 276.042 127.779 274.224 126.853 272.672C126.709 272.433 126.54 272.19 126.317 271.913C126.288 271.879 126.277 271.835 126.279 271.79C126.332 271.166 126.396 270.551 126.462 269.956C126.867 266.266 127.218 263.081 123.756 259.426C122.155 257.734 119.995 256.803 117.825 256.869C117.542 256.878 117.236 256.912 116.887 256.972C116.688 257.005 116.381 256.768 114.855 255.219C114.526 254.886 114.22 254.572 114.12 254.494C111.485 252.406 108.66 250.534 105.84 251.002C104.702 251.19 103.535 251.71 102.16 252.635C102.118 252.666 102.067 252.673 102.017 252.658C99.46 251.951 96.6421 252.977 95.0052 255.209L90.7768 260.968C91.1229 261.271 91.4275 261.6 91.6818 261.949L91.6923 261.946Z" fill="#090909"/>
<path d="M111.342 272.38C111.228 271.568 111.151 270.724 110.766 269.996C109.819 268.202 107.376 267.71 106.225 266.038C105.397 264.837 105.437 263.103 106.318 261.943C102.051 266.533 95.855 269.269 89.5873 269.327C91.0798 268.32 92.0745 266.897 92.8088 265.276C92.9501 264.962 93.0886 264.65 93.2251 264.335L91.5641 262.058C91.2708 261.656 90.9316 261.309 90.5661 261.002C88.5127 259.291 85.4749 259.113 83.2258 260.753L82.7563 261.095C80.1052 263.029 79.5179 266.783 81.4516 269.434L82.3908 270.721L65.3509 281.178C60.3699 284.234 58.8096 290.751 61.8656 295.732L62.4051 296.614C65.4611 301.595 71.9787 303.155 76.9597 300.099L83.3786 296.162C86.5514 300.364 92.5196 301.266 96.7901 298.151L115.632 284.408C116.453 283.809 117.144 283.103 117.711 282.327C117.203 282.116 116.719 281.853 116.272 281.542C113.349 279.5 111.845 275.915 111.347 272.381L111.342 272.38Z" fill="#F8EEE2"/>
<path d="M62.7336 297.432C62.5614 297.195 62.3996 296.956 62.245 296.703L61.7055 295.821C60.2034 293.372 59.7435 290.486 60.4127 287.689C61.084 284.895 62.7992 282.529 65.2482 281.027L82.1281 270.67L81.2996 269.534C79.3044 266.799 79.9069 262.948 82.6424 260.953L83.1119 260.61C85.3863 258.951 88.4933 259.054 90.6679 260.866C91.0664 261.2 91.4131 261.563 91.6981 261.954L93.3591 264.231C93.396 264.282 93.4035 264.345 93.377 264.403C93.2406 264.718 93.1021 265.03 92.9608 265.344C92.2158 266.986 91.2888 268.231 90.136 269.136C96.1364 268.924 102.102 266.214 106.189 261.82C106.252 261.753 106.358 261.745 106.428 261.805C106.498 261.866 106.509 261.97 106.455 262.044C105.614 263.152 105.577 264.79 106.366 265.938C106.892 266.7 107.713 267.217 108.508 267.722C109.437 268.311 110.395 268.921 110.92 269.913C111.274 270.581 111.374 271.338 111.474 272.071L111.512 272.354C111.842 274.697 112.913 278.981 116.366 281.394C116.795 281.693 117.267 281.951 117.77 282.162C117.819 282.182 117.854 282.225 117.871 282.277C117.886 282.327 117.875 282.382 117.843 282.427C117.241 283.25 116.529 283.963 115.728 284.547L96.8861 298.29C92.6184 301.403 86.5739 300.544 83.3287 296.39L77.0445 300.246C74.5954 301.748 71.7092 302.208 68.9125 301.539C66.4036 300.94 64.2416 299.493 62.7385 297.432L62.7336 297.432ZM91.4142 262.161C91.1476 261.795 90.8209 261.448 90.4436 261.137C88.3923 259.429 85.4641 259.33 83.3162 260.896L82.8467 261.239C80.2659 263.121 79.6976 266.753 81.58 269.334L82.5192 270.622C82.5479 270.661 82.5577 270.71 82.5501 270.758C82.5404 270.804 82.5113 270.847 82.4699 270.873L65.4301 281.329C63.061 282.781 61.3997 285.074 60.7526 287.777C60.1055 290.48 60.5499 293.275 62.0043 295.646L62.5438 296.528C63.9962 298.897 66.2862 300.56 68.9921 301.205C71.6951 301.852 74.4893 301.408 76.8612 299.954L83.28 296.017C83.3572 295.969 83.4565 295.987 83.5098 296.06C86.615 300.17 92.5223 301.047 96.6803 298.014L115.522 284.271C116.239 283.748 116.88 283.121 117.431 282.4C116.98 282.195 116.557 281.957 116.163 281.684C112.605 279.197 111.504 274.806 111.167 272.407L111.127 272.122C111.033 271.42 110.934 270.694 110.61 270.078C110.13 269.166 109.251 268.61 108.32 268.019C107.493 267.494 106.639 266.949 106.078 266.139C105.433 265.201 105.288 263.963 105.636 262.887C101.395 266.993 95.4814 269.449 89.5854 269.503C89.5082 269.504 89.4413 269.453 89.4179 269.38C89.3946 269.306 89.4221 269.226 89.486 269.184C90.8 268.299 91.8328 266.998 92.6459 265.208C92.775 264.924 92.8984 264.645 93.0198 264.362L91.4183 262.167L91.4142 262.161Z" fill="#090909"/>
<path d="M83.2005 271.88L77.938 273.393L81.4121 269.398L83.2005 271.88Z" fill="#090909"/>
<path d="M77.7967 273.496C77.7967 273.496 77.7926 273.491 77.7906 273.488C77.7483 273.424 77.7543 273.338 77.8059 273.279L81.28 269.284C81.316 269.245 81.3672 269.221 81.4186 269.226C81.4728 269.23 81.5266 269.268 81.552 269.297L83.3404 271.779C83.3732 271.824 83.3815 271.882 83.3654 271.937C83.3474 271.989 83.3037 272.029 83.2484 272.048L77.9859 273.561C77.9153 273.582 77.8398 273.555 77.7967 273.496ZM81.4 269.679L78.4547 273.064L82.9137 271.784L81.3972 269.681L81.4 269.679Z" fill="#090909"/>
<path d="M87.5723 263.945L86.8941 267.149L84.6096 266.279" fill="#F8EEE2"/>
<path d="M84.4627 266.385C84.4299 266.34 84.4196 266.278 84.4412 266.219C84.4751 266.13 84.5746 266.083 84.666 266.12L86.7629 266.916L87.4001 263.91C87.4222 263.817 87.5114 263.756 87.6079 263.776C87.6995 263.795 87.7624 263.887 87.7423 263.984L87.0642 267.188C87.0537 267.238 87.0226 267.278 86.9763 267.303C86.93 267.329 86.8799 267.331 86.8328 267.313L84.5454 266.445C84.515 266.433 84.486 266.411 84.4676 266.385L84.4627 266.385Z" fill="#090909"/>
<path d="M97.4669 285.814L96.4806 284.461C96.4232 284.383 96.4399 284.276 96.5186 284.218C96.5973 284.161 96.7043 284.178 96.7617 284.256L97.7481 285.609C98.072 286.053 98.5764 286.331 99.1237 286.367C99.6731 286.405 100.208 286.2 100.589 285.802L104.723 281.507C104.789 281.438 104.899 281.435 104.97 281.504C105.038 281.566 105.042 281.679 104.974 281.751L100.84 286.045C100.388 286.517 99.7518 286.761 99.0989 286.717C98.4459 286.672 97.8496 286.344 97.4641 285.816L97.4669 285.814Z" fill="#090909"/>
<path d="M104.987 287.102C104.522 287.587 103.752 287.606 103.267 287.142C102.782 286.677 102.763 285.907 103.227 285.422C103.692 284.937 104.462 284.918 104.945 285.379C105.43 285.844 105.449 286.614 104.985 287.099L104.987 287.102Z" fill="#090909"/>
<path d="M87.8641 291.505C87.8201 291.468 87.788 291.418 87.7749 291.359C87.7618 291.299 87.4474 289.87 86.0139 289.688C85.875 289.669 85.7799 289.545 85.7943 289.405C85.8135 289.266 85.9388 289.166 86.0777 289.185C87.8773 289.415 88.2693 291.239 88.2711 291.259C88.2971 291.396 88.209 291.529 88.075 291.557C87.9975 291.575 87.9212 291.553 87.8641 291.505Z" fill="#090909"/>
<path d="M99.03 271.302C99.3306 271.833 99.9533 272.214 100.53 272.616C101.122 273.007 101.705 273.417 102.199 273.793C102.696 274.167 103.251 274.615 103.791 275.078C104.337 275.525 104.877 276.018 105.463 276.159C106.023 276.302 106.586 275.917 106.561 274.902C106.554 273.929 105.821 272.323 104.183 271.08C102.54 269.849 100.816 269.599 99.8961 269.874C98.9347 270.144 98.7325 270.8 99.0292 271.307L99.03 271.302Z" fill="#090909"/>
<path d="M110.918 285.923C110.581 285.609 110.451 285.088 110.289 284.594C110.138 284.093 109.972 283.594 109.813 283.163C109.651 282.734 109.448 282.249 109.231 281.774C109.027 281.294 108.783 280.812 108.832 280.359C108.873 279.925 109.323 279.579 110.111 279.78C110.872 279.956 111.937 280.778 112.472 282.197C113 283.616 112.733 284.922 112.274 285.545C111.806 286.202 111.238 286.232 110.92 285.926L110.918 285.923Z" fill="#090909"/>
<path d="M98.4073 278.803C97.7813 279.191 96.9646 278.998 96.5741 278.374C96.1864 277.748 96.379 276.932 97.0029 276.541C97.6289 276.153 98.4456 276.346 98.8361 276.97C99.2238 277.596 99.0312 278.413 98.4073 278.803Z" fill="#090909"/>
<path d="M95.7725 277.385C95.7725 277.385 97.1606 277.841 97.0205 279.373L95.7725 277.385Z" fill="#F8EEE2"/>
<path d="M96.8753 279.477C96.8507 279.443 96.8373 279.401 96.8442 279.357C96.971 277.99 95.7669 277.567 95.717 277.552C95.6269 277.523 95.5754 277.423 95.6072 277.331C95.6362 277.241 95.7365 277.189 95.8266 277.218C95.8432 277.223 97.3467 277.737 97.1932 279.387C97.1856 279.483 97.0998 279.554 97.0018 279.544C96.9504 279.538 96.9048 279.511 96.8781 279.475L96.8753 279.477Z" fill="#090909"/>
<path d="M102.4 286.334C102.4 286.334 103.424 286.918 103.603 288.019L102.4 286.334Z" fill="#F8EEE2"/>
<path d="M103.461 288.12C103.444 288.097 103.436 288.074 103.428 288.045C103.263 287.04 102.319 286.489 102.312 286.486C102.23 286.438 102.199 286.331 102.247 286.249C102.294 286.167 102.401 286.136 102.484 286.184C102.527 286.208 103.582 286.821 103.772 287.992C103.79 288.087 103.721 288.175 103.629 288.191C103.563 288.201 103.5 288.173 103.461 288.12Z" fill="#090909"/>
<path d="M92.4341 279.384C92.9521 279.575 93.2512 280.115 93.1923 280.666C93.0801 281.67 93.0581 283.689 94.2327 285.7C94.5212 286.196 94.1593 286.822 93.5968 286.931C92.3617 287.168 90.0958 287.038 89.4681 283.792C88.7023 279.837 91.082 278.889 92.4333 279.389L92.4341 279.384Z" fill="#FFF9F3"/>
<path d="M90.1126 285.842C89.7579 285.356 89.4674 284.698 89.2939 283.816C88.7989 281.266 89.6342 280.114 90.1769 279.653C90.8204 279.106 91.7289 278.935 92.4914 279.218C93.0753 279.434 93.432 280.036 93.3607 280.682C93.2493 281.681 93.2357 283.646 94.3781 285.608C94.5312 285.871 94.5445 286.184 94.4118 286.475C94.2642 286.798 93.9715 287.029 93.6247 287.096C92.9904 287.219 91.2287 287.384 90.107 285.846L90.1126 285.842ZM92.3709 279.543C91.8812 279.362 91.0684 279.352 90.3996 279.917C89.564 280.626 89.2912 281.988 89.6331 283.75C90.2675 287.017 92.5912 286.937 93.559 286.752C93.7928 286.707 93.9975 286.545 94.0957 286.331C94.1796 286.145 94.1752 285.95 94.0765 285.785C92.8802 283.737 92.895 281.685 93.0125 280.647C93.0663 280.16 92.8029 279.71 92.3673 279.55L92.3709 279.543Z" fill="#090909"/>
<path d="M83.2812 296.153C83.2812 296.153 76.3051 287.782 78.2812 283.016C78.2812 283.016 73.8363 289.251 78.0742 299.348L83.2784 296.155L83.2812 296.153Z" fill="#090909"/>
<path d="M77.934 299.444C77.934 299.444 77.9176 299.422 77.9122 299.408C73.6851 289.338 78.0907 282.972 78.1382 282.907C78.1893 282.835 78.2849 282.813 78.363 282.855C78.4383 282.899 78.4712 282.991 78.4408 283.074C76.5259 287.688 83.3419 295.952 83.4139 296.033C83.4447 296.075 83.4621 296.123 83.4517 296.173C83.4441 296.222 83.4122 296.267 83.3708 296.293L78.1666 299.486C78.1224 299.513 78.0694 299.518 78.0244 299.503C77.9891 299.49 77.9573 299.47 77.9368 299.442L77.934 299.444ZM77.7878 284.286C76.7642 286.515 75.1572 291.787 78.1594 299.086L83.0218 296.104C82.1392 295.012 77.3019 288.793 77.7906 284.284L77.7878 284.286Z" fill="#090909"/>
<path d="M-13.5135 291.025L7.30116 277.04L22.1206 298.792C21.9907 298.874 38.635 289.848 38.5031 289.927L22.1206 298.792L20.1448 295.901L13.2017 300.53C13.2017 300.53 37.1104 312.612 40.2969 312.811C40.2969 312.811 49.9262 314.333 53.06 315.458C53.3973 315.578 53.7352 315.711 54.0113 315.936C54.2874 316.161 54.4931 316.502 54.4723 316.857C54.4446 317.321 54.0577 317.677 53.6687 317.935C52.4679 318.733 51.038 319.069 49.6249 319.394C49.7655 319.498 64.7039 330.176 65.4638 330.811C66.7732 331.897 64.8866 333.178 63.1947 332.961C61.0386 332.686 53.9958 329.23 53.7012 328.98C54.7381 330.295 55.9562 331.393 53.9879 333.323C52.6289 334.655 51.2242 333.621 50.0702 332.369C50.6688 333.255 50.9185 334.206 49.9526 335.031C48.4689 336.634 46.7162 335.707 45.4912 334.4C45.4548 334.362 45.3925 334.394 45.4063 334.449C45.8045 335.963 43.0451 336.727 41.1521 335.454L30.0008 328.746C28.8251 328.079 -9.8191 316.533 -9.8191 316.533C-14.1121 315.064 -17.1264 311.918 -18.6144 308.201C-21.081 302.032 -18.8745 294.965 -13.5212 291.026L-13.5135 291.025Z" fill="#F8EEE2"/>
<path d="M-16.9881 311.504C-17.7058 310.52 -18.3059 309.438 -18.7747 308.263C-21.2468 302.081 -19.1297 294.934 -13.6225 290.886L-13.6169 290.882L7.19781 276.897C7.27577 276.845 7.37786 276.861 7.43938 276.945L22.1722 298.567L37.7821 290.118C37.9532 290.028 38.0843 289.954 38.1901 289.898L38.4187 289.775L38.4248 289.783C38.5816 289.72 38.6034 289.756 38.6524 289.841C38.6993 289.923 38.6728 290.029 38.5928 290.078L31.946 293.673C31.6411 293.84 31.334 294.003 31.029 294.17L22.9744 298.533C22.7515 298.653 22.5853 298.744 22.4529 298.81L22.197 298.949C22.164 298.969 22.1236 298.973 22.0868 298.969C22.0157 298.978 21.9959 298.945 21.9626 298.888C21.9626 298.888 21.9605 298.885 21.9585 298.882L20.0878 296.146L13.5365 300.516C16.1707 301.842 37.3621 312.46 40.2997 312.643C40.4115 312.66 49.9963 314.18 53.1085 315.3C53.4695 315.428 53.8191 315.565 54.1124 315.808C54.4635 316.094 54.6601 316.494 54.6376 316.876C54.6108 317.318 54.3223 317.714 53.7605 318.089C52.6292 318.841 51.3223 319.187 50.0328 319.486C50.1224 319.549 50.2279 319.623 50.3486 319.712C62.3711 328.317 65.2614 330.426 65.5698 330.683C66.1963 331.2 66.1003 331.718 65.9848 331.978C65.643 332.762 64.3546 333.292 63.1678 333.142C61.4147 332.917 56.3725 330.587 54.385 329.568C55.2131 330.627 55.8264 331.769 54.1057 333.455C53.6382 333.912 53.1242 334.14 52.5836 334.125C51.8913 334.109 51.2335 333.698 50.6802 333.222C50.9082 333.978 50.6985 334.617 50.0571 335.167C49.5176 335.75 48.8872 336.055 48.1995 336.057C47.1805 336.059 46.2655 335.413 45.612 334.783C45.6005 335.175 45.3932 335.528 45.0124 335.797C44.1355 336.42 42.4115 336.519 41.0484 335.601L29.9061 328.898C28.9936 328.38 3.48532 320.695 -9.87444 316.704C-12.8059 315.703 -15.2466 313.904 -16.9937 311.508L-16.9881 311.504ZM-13.4203 291.17C-18.7961 295.125 -20.8663 302.101 -18.4508 308.135C-16.8786 312.062 -13.7945 314.985 -9.76208 316.368C-8.18905 316.836 28.9105 327.923 30.0883 328.593L41.2417 335.304C42.4696 336.132 44.0534 336.053 44.8178 335.513C45.0813 335.325 45.3718 334.997 45.2385 334.495C45.212 334.394 45.258 334.292 45.3456 334.241C45.4354 334.192 45.5472 334.21 45.6179 334.283C46.4826 335.203 47.3995 335.71 48.2069 335.707C48.7951 335.704 49.3373 335.438 49.8253 334.914C50.5878 334.259 50.6161 333.489 49.9268 332.467C49.8734 332.394 49.8922 332.29 49.9633 332.234C50.0364 332.18 50.1379 332.184 50.1997 332.251C51.1431 333.272 51.9044 333.755 52.5988 333.774C53.0503 333.785 53.4655 333.598 53.869 333.201C55.5552 331.545 54.7999 330.609 53.835 329.422C53.7454 329.311 53.6557 329.2 53.566 329.089C53.5106 329.013 53.5181 328.917 53.5823 328.857C53.6443 328.795 53.7467 328.793 53.8148 328.851C54.1846 329.146 61.1249 332.526 63.217 332.796C64.3231 332.936 65.4243 332.409 65.6727 331.84C65.8048 331.537 65.6946 331.238 65.3532 330.953C65.0489 330.701 62.1655 328.597 50.152 319.997C49.7645 319.72 49.5384 319.558 49.5204 319.545C49.4667 319.507 49.4405 319.435 49.4532 319.37C49.4659 319.305 49.5167 319.25 49.5837 319.236C50.9584 318.918 52.3819 318.59 53.5715 317.8C54.0385 317.49 54.2757 317.183 54.2968 316.858C54.3115 316.589 54.163 316.296 53.8979 316.081C53.6486 315.875 53.3294 315.75 52.9969 315.631C49.9151 314.524 40.3644 313.009 40.2672 312.994C37.0953 312.797 14.0962 301.188 13.1172 300.696C13.0619 300.668 13.0257 300.612 13.0203 300.552C13.0176 300.489 13.0442 300.431 13.0968 300.397L19.8981 295.862L7.24749 277.296L-13.4197 291.182L-13.4203 291.17Z" fill="#090909"/>
<path d="M16.694 298.043L2.72216 295.433L13.0415 300.647L16.694 298.043Z" fill="#090909"/>
<path d="M49.3489 319.405L43.0835 315.947C43.0835 315.947 50.5653 318.014 51.5991 318.776L49.3489 319.405Z" fill="#090909"/>
<path d="M50.6724 326.717C50.6724 326.717 54.0528 329.131 54.4793 329.669L50.6724 326.717Z" fill="#F8EEE2"/>
<path d="M50.53 326.82C50.487 326.761 50.4825 326.678 50.5292 326.618C50.5839 326.539 50.6962 326.522 50.772 326.578C50.9085 326.677 54.1765 329.014 54.6139 329.561C54.6721 329.634 54.6623 329.745 54.5856 329.805C54.5089 329.865 54.4012 329.854 54.341 329.777C54.0014 329.353 51.5027 327.527 50.5685 326.86C50.5526 326.851 50.5375 326.836 50.5272 326.822L50.53 326.82Z" fill="#090909"/>
<path d="M47.0995 330.443C47.0564 330.384 47.0547 330.299 47.0994 330.236C47.1561 330.16 47.2656 330.145 47.3442 330.2L50.4264 332.483C50.5043 332.542 50.5175 332.649 50.4628 332.727C50.4061 332.803 50.2967 332.819 50.218 332.764L47.1358 330.481C47.1358 330.481 47.1097 330.457 47.0995 330.443Z" fill="#090909"/>
<path d="M43.5419 333.057C43.4968 332.995 43.4951 332.91 43.5447 332.849C43.6042 332.771 43.7129 332.76 43.7887 332.817L45.4207 334.086C45.4985 334.145 45.5089 334.254 45.4522 334.33C45.3927 334.408 45.284 334.418 45.2082 334.362L43.5763 333.093C43.5763 333.093 43.5522 333.071 43.5419 333.057Z" fill="#090909"/>
<path d="M97.824 424.692C100.704 424.692 103.296 422.708 104 419.988L109.024 420.66C108.256 425.684 103.52 429.3 97.696 429.3C90.656 429.3 85.536 424.18 85.536 417.108C85.536 410.036 90.656 404.916 97.696 404.916C103.456 404.916 108.192 408.628 109.024 413.78L103.968 414.356C103.328 411.54 100.768 409.524 97.824 409.524C93.76 409.524 90.912 412.66 90.912 417.108C90.912 421.556 93.792 424.692 97.824 424.692ZM120.963 411.476C126.371 411.476 130.083 415.06 130.083 420.308C130.083 425.524 126.371 429.14 120.963 429.14C115.587 429.14 111.875 425.524 111.875 420.308C111.875 415.06 115.587 411.476 120.963 411.476ZM120.963 424.916C123.491 424.916 125.251 422.996 125.251 420.308C125.251 417.62 123.491 415.7 120.963 415.7C118.467 415.7 116.707 417.62 116.707 420.308C116.707 422.996 118.467 424.916 120.963 424.916ZM138.286 428.5H133.486V412.116H138.094V414.068C139.118 412.404 140.91 411.476 142.894 411.476C145.262 411.476 147.246 412.596 148.174 414.388C149.23 412.596 151.406 411.476 153.678 411.476C157.39 411.476 159.982 414.26 159.982 418.196V428.5H155.182V419.156C155.182 417.204 153.966 415.764 152.142 415.7C150.286 415.7 149.038 417.14 149.038 419.156V428.5H144.238V419.156C144.238 417.076 143.086 415.7 141.294 415.7C139.47 415.7 138.286 417.076 138.286 419.156V428.5ZM164.214 412.116H169.014V428.5H164.214V412.116ZM166.614 409.94C164.982 409.94 163.83 408.82 163.83 407.22C163.83 405.652 164.982 404.532 166.614 404.532C168.246 404.532 169.398 405.652 169.398 407.22C169.398 408.82 168.246 409.94 166.614 409.94ZM173.549 412.116H178.221V414.324C179.373 412.564 181.293 411.476 183.437 411.476C187.117 411.476 189.613 414.324 189.613 418.26V428.5H184.813V419.092C184.813 417.108 183.661 415.7 181.773 415.7C179.885 415.7 178.349 417.204 178.349 419.284V428.5H173.549V412.116ZM201.807 424.788C204.303 424.788 206.095 422.9 206.095 420.308C206.095 417.652 204.303 415.7 201.807 415.7C199.311 415.7 197.519 417.652 197.519 420.308C197.519 422.9 199.311 424.788 201.807 424.788ZM201.743 432.692C204.175 432.692 205.903 431.028 205.903 428.18V426.228C204.623 427.796 202.767 428.724 200.495 428.724C195.983 428.724 192.719 425.268 192.719 420.308C192.719 415.156 195.983 411.508 200.495 411.508C202.799 411.508 204.655 412.468 205.903 414.068V412.116H210.703V428.308C210.703 433.396 207.119 436.5 201.935 436.5C197.455 436.5 193.839 433.748 193.359 429.972L197.647 429.492C198.063 431.348 199.791 432.692 201.743 432.692ZM243.811 421.396C243.811 426.068 239.939 429.3 234.147 429.3C228.355 429.3 224.195 425.812 224.195 421.012H229.027C229.027 423.476 231.235 425.236 234.307 425.236C236.931 425.236 238.562 423.924 238.562 422.1C238.562 419.956 236.099 419.636 233.283 419.284C228.771 418.708 224.419 417.748 224.419 412.436C224.419 407.988 228.227 404.916 233.731 404.916C239.267 404.916 243.267 408.244 243.267 412.82H238.595C238.627 410.58 236.611 408.98 233.859 408.98C231.331 408.98 229.667 410.164 229.667 411.828C229.667 413.972 231.939 414.292 234.819 414.676C239.235 415.188 243.811 416.148 243.811 421.396ZM255.869 411.476C261.277 411.476 264.989 415.06 264.989 420.308C264.989 425.524 261.277 429.14 255.869 429.14C250.493 429.14 246.781 425.524 246.781 420.308C246.781 415.06 250.493 411.476 255.869 411.476ZM255.869 424.916C258.397 424.916 260.157 422.996 260.157 420.308C260.157 417.62 258.397 415.7 255.869 415.7C253.373 415.7 251.613 417.62 251.613 420.308C251.613 422.996 253.373 424.916 255.869 424.916ZM276.713 411.476C282.121 411.476 285.833 415.06 285.833 420.308C285.833 425.524 282.121 429.14 276.713 429.14C271.337 429.14 267.625 425.524 267.625 420.308C267.625 415.06 271.337 411.476 276.713 411.476ZM276.713 424.916C279.241 424.916 281.001 422.996 281.001 420.308C281.001 417.62 279.241 415.7 276.713 415.7C274.217 415.7 272.457 417.62 272.457 420.308C272.457 422.996 274.217 424.916 276.713 424.916ZM289.236 412.116H293.908V414.324C295.06 412.564 296.98 411.476 299.124 411.476C302.804 411.476 305.3 414.324 305.3 418.26V428.5H300.5V419.092C300.5 417.108 299.348 415.7 297.46 415.7C295.572 415.7 294.036 417.204 294.036 419.284V428.5H289.236V412.116Z" fill="black"/>
<path d="M86.2951 454.991V457.378H90.5191V458.5H85.0191V450.712H90.4091V451.834H86.2951V453.979H89.9691V454.991H86.2951ZM92.9881 458.5H91.5471L93.4941 455.596L91.6461 452.912H93.0541L94.3851 454.914L95.7161 452.912H97.1351L95.2761 455.596L97.2341 458.5H95.7821L94.3851 456.311L92.9881 458.5ZM101.423 457.598C102.49 457.598 103.271 456.795 103.271 455.706C103.271 454.595 102.479 453.814 101.423 453.814C100.356 453.814 99.5862 454.617 99.5862 455.706C99.5862 456.795 100.356 457.598 101.423 457.598ZM104.459 455.706C104.459 457.455 103.282 458.72 101.654 458.72C100.818 458.72 100.103 458.357 99.6302 457.741V461.03H98.4312V452.912H99.5972V453.693C100.081 453.066 100.796 452.692 101.654 452.692C103.271 452.692 104.459 453.957 104.459 455.706ZM106.758 455.189H110.234C110.102 454.309 109.398 453.693 108.474 453.693C107.572 453.693 106.912 454.298 106.758 455.189ZM105.515 455.64C105.515 453.924 106.769 452.692 108.507 452.692C110.245 452.692 111.477 453.924 111.477 455.651C111.477 455.783 111.466 455.948 111.455 456.08L106.747 456.069C106.89 457.059 107.583 457.719 108.496 457.719C109.244 457.719 109.937 457.279 110.146 456.663L111.268 456.828C110.949 457.928 109.794 458.72 108.518 458.72C106.769 458.72 105.515 457.433 105.515 455.64ZM112.793 452.912H113.948V453.627C114.289 453.055 114.828 452.714 115.466 452.714C115.686 452.714 115.939 452.769 116.181 452.857V453.924C115.873 453.792 115.532 453.748 115.312 453.748C114.52 453.748 113.992 454.452 113.992 455.442V458.5H112.793V452.912ZM117.438 452.912H118.626V458.5H117.438V452.912ZM118.032 452.01C117.592 452.01 117.284 451.702 117.284 451.273C117.284 450.855 117.592 450.558 118.032 450.558C118.461 450.558 118.769 450.855 118.769 451.273C118.769 451.702 118.461 452.01 118.032 452.01ZM121.335 455.189H124.811C124.679 454.309 123.975 453.693 123.051 453.693C122.149 453.693 121.489 454.298 121.335 455.189ZM120.092 455.64C120.092 453.924 121.346 452.692 123.084 452.692C124.822 452.692 126.054 453.924 126.054 455.651C126.054 455.783 126.043 455.948 126.032 456.08L121.324 456.069C121.467 457.059 122.16 457.719 123.073 457.719C123.821 457.719 124.514 457.279 124.723 456.663L125.845 456.828C125.526 457.928 124.371 458.72 123.095 458.72C121.346 458.72 120.092 457.433 120.092 455.64ZM127.371 452.912H128.548V453.627C128.944 453.044 129.637 452.692 130.363 452.692C131.727 452.692 132.618 453.704 132.618 455.09V458.5H131.43V455.178C131.43 454.353 130.935 453.759 130.099 453.759C129.263 453.759 128.57 454.397 128.57 455.288V458.5H127.371V452.912ZM136.779 452.692C138.198 452.692 139.364 453.583 139.562 454.815L138.418 454.958C138.242 454.232 137.56 453.715 136.79 453.715C135.8 453.715 135.019 454.551 135.019 455.706C135.03 456.861 135.789 457.697 136.79 457.697C137.582 457.697 138.231 457.18 138.429 456.465L139.573 456.608C139.342 457.829 138.165 458.72 136.79 458.72C135.074 458.72 133.831 457.455 133.831 455.706C133.831 453.957 135.074 452.692 136.779 452.692ZM141.874 455.189H145.35C145.218 454.309 144.514 453.693 143.59 453.693C142.688 453.693 142.028 454.298 141.874 455.189ZM140.631 455.64C140.631 453.924 141.885 452.692 143.623 452.692C145.361 452.692 146.593 453.924 146.593 455.651C146.593 455.783 146.582 455.948 146.571 456.08L141.863 456.069C142.006 457.059 142.699 457.719 143.612 457.719C144.36 457.719 145.053 457.279 145.262 456.663L146.384 456.828C146.065 457.928 144.91 458.72 143.634 458.72C141.885 458.72 140.631 457.433 140.631 455.64ZM151.458 452.912H152.646V458.5H151.458V452.912ZM152.052 452.01C151.612 452.01 151.304 451.702 151.304 451.273C151.304 450.855 151.612 450.558 152.052 450.558C152.481 450.558 152.789 450.855 152.789 451.273C152.789 451.702 152.481 452.01 152.052 452.01ZM154.376 452.912H155.553V453.627C155.949 453.044 156.642 452.692 157.368 452.692C158.732 452.692 159.623 453.704 159.623 455.09V458.5H158.435V455.178C158.435 454.353 157.94 453.759 157.104 453.759C156.268 453.759 155.575 454.397 155.575 455.288V458.5H154.376V452.912ZM161.101 452.912H162.278V453.627C162.674 453.044 163.367 452.692 164.093 452.692C165.457 452.692 166.348 453.704 166.348 455.09V458.5H165.16V455.178C165.16 454.353 164.665 453.759 163.829 453.759C162.993 453.759 162.3 454.397 162.3 455.288V458.5H161.101V452.912ZM170.587 452.692C172.369 452.692 173.623 453.935 173.623 455.706C173.623 457.477 172.369 458.72 170.587 458.72C168.794 458.72 167.551 457.477 167.551 455.706C167.551 453.935 168.794 452.692 170.587 452.692ZM170.587 457.653C171.654 457.653 172.435 456.839 172.435 455.706C172.435 454.573 171.654 453.759 170.587 453.759C169.509 453.759 168.75 454.573 168.75 455.706C168.75 456.839 169.509 457.653 170.587 457.653ZM177.892 458.5H176.209L174.163 452.912H175.439L177.045 457.576L178.662 452.912H179.949L177.892 458.5ZM183.531 457.653C184.598 457.653 185.368 456.839 185.368 455.706C185.368 454.573 184.598 453.759 183.531 453.759C182.464 453.759 181.683 454.573 181.683 455.706C181.683 456.828 182.464 457.653 183.531 457.653ZM185.379 453.748V452.912H186.578V458.5H185.379V457.664C184.906 458.324 184.169 458.72 183.3 458.72C181.661 458.72 180.495 457.455 180.495 455.706C180.495 453.957 181.661 452.692 183.3 452.692C184.169 452.692 184.906 453.088 185.379 453.748ZM188.645 456.927V453.847H187.787V452.912H188.711L188.865 451.559H189.844V452.912H191.208V453.847H189.844V456.85C189.844 457.356 190.152 457.708 190.658 457.708C190.812 457.708 191.076 457.675 191.285 457.609V458.566C190.999 458.665 190.603 458.72 190.295 458.72C189.294 458.72 188.645 457.994 188.645 456.927ZM192.762 452.912H193.95V458.5H192.762V452.912ZM193.356 452.01C192.916 452.01 192.608 451.702 192.608 451.273C192.608 450.855 192.916 450.558 193.356 450.558C193.785 450.558 194.093 450.855 194.093 451.273C194.093 451.702 193.785 452.01 193.356 452.01ZM198.441 452.692C200.223 452.692 201.477 453.935 201.477 455.706C201.477 457.477 200.223 458.72 198.441 458.72C196.648 458.72 195.405 457.477 195.405 455.706C195.405 453.935 196.648 452.692 198.441 452.692ZM198.441 457.653C199.508 457.653 200.289 456.839 200.289 455.706C200.289 454.573 199.508 453.759 198.441 453.759C197.363 453.759 196.604 454.573 196.604 455.706C196.604 456.839 197.363 457.653 198.441 457.653ZM202.792 452.912H203.969V453.627C204.365 453.044 205.058 452.692 205.784 452.692C207.148 452.692 208.039 453.704 208.039 455.09V458.5H206.851V455.178C206.851 454.353 206.356 453.759 205.52 453.759C204.684 453.759 203.991 454.397 203.991 455.288V458.5H202.792V452.912ZM212.911 450.382H214.099V458.5H212.911V450.382ZM215.836 452.912H217.024V458.5H215.836V452.912ZM216.43 452.01C215.99 452.01 215.682 451.702 215.682 451.273C215.682 450.855 215.99 450.558 216.43 450.558C216.859 450.558 217.167 450.855 217.167 451.273C217.167 451.702 216.859 452.01 216.43 452.01ZM218.754 458.5V450.382H219.953V455.068L222.098 452.912H223.627L221.031 455.497L223.726 458.5H222.208L219.953 455.948V458.5H218.754ZM225.362 455.189H228.838C228.706 454.309 228.002 453.693 227.078 453.693C226.176 453.693 225.516 454.298 225.362 455.189ZM224.119 455.64C224.119 453.924 225.373 452.692 227.111 452.692C228.849 452.692 230.081 453.924 230.081 455.651C230.081 455.783 230.07 455.948 230.059 456.08L225.351 456.069C225.494 457.059 226.187 457.719 227.1 457.719C227.848 457.719 228.541 457.279 228.75 456.663L229.872 456.828C229.553 457.928 228.398 458.72 227.122 458.72C225.373 458.72 224.119 457.433 224.119 455.64ZM234.792 452.912H235.969V453.627C236.365 453.044 237.058 452.692 237.784 452.692C239.148 452.692 240.039 453.704 240.039 455.09V458.5H238.851V455.178C238.851 454.353 238.356 453.759 237.52 453.759C236.684 453.759 235.991 454.397 235.991 455.288V458.5H234.792V452.912ZM242.496 455.189H245.972C245.84 454.309 245.136 453.693 244.212 453.693C243.31 453.693 242.65 454.298 242.496 455.189ZM241.253 455.64C241.253 453.924 242.507 452.692 244.245 452.692C245.983 452.692 247.215 453.924 247.215 455.651C247.215 455.783 247.204 455.948 247.193 456.08L242.485 456.069C242.628 457.059 243.321 457.719 244.234 457.719C244.982 457.719 245.675 457.279 245.884 456.663L247.006 456.828C246.687 457.928 245.532 458.72 244.256 458.72C242.507 458.72 241.253 457.433 241.253 455.64ZM251.486 458.5H249.803L247.757 452.912H249.033L250.639 457.576L252.256 452.912H253.543L251.486 458.5ZM255.333 455.189H258.809C258.677 454.309 257.973 453.693 257.049 453.693C256.147 453.693 255.487 454.298 255.333 455.189ZM254.09 455.64C254.09 453.924 255.344 452.692 257.082 452.692C258.82 452.692 260.052 453.924 260.052 455.651C260.052 455.783 260.041 455.948 260.03 456.08L255.322 456.069C255.465 457.059 256.158 457.719 257.071 457.719C257.819 457.719 258.512 457.279 258.721 456.663L259.843 456.828C259.524 457.928 258.369 458.72 257.093 458.72C255.344 458.72 254.09 457.433 254.09 455.64ZM261.369 452.912H262.524V453.627C262.865 453.055 263.404 452.714 264.042 452.714C264.262 452.714 264.515 452.769 264.757 452.857V453.924C264.449 453.792 264.108 453.748 263.888 453.748C263.096 453.748 262.568 454.452 262.568 455.442V458.5H261.369V452.912ZM272.245 453.814C271.178 453.814 270.408 454.617 270.408 455.706C270.408 456.795 271.178 457.598 272.245 457.598C273.301 457.598 274.093 456.817 274.093 455.706C274.093 454.617 273.312 453.814 272.245 453.814ZM275.281 455.706C275.281 457.455 274.093 458.72 272.476 458.72C271.618 458.72 270.903 458.346 270.419 457.719V458.5H269.253V450.382H270.452V453.671C270.925 453.055 271.64 452.692 272.476 452.692C274.104 452.692 275.281 453.957 275.281 455.706ZM277.58 455.189H281.056C280.924 454.309 280.22 453.693 279.296 453.693C278.394 453.693 277.734 454.298 277.58 455.189ZM276.337 455.64C276.337 453.924 277.591 452.692 279.329 452.692C281.067 452.692 282.299 453.924 282.299 455.651C282.299 455.783 282.288 455.948 282.277 456.08L277.569 456.069C277.712 457.059 278.405 457.719 279.318 457.719C280.066 457.719 280.759 457.279 280.968 456.663L282.09 456.828C281.771 457.928 280.616 458.72 279.34 458.72C277.591 458.72 276.337 457.433 276.337 455.64ZM285.398 452.054V452.912H286.751V453.847H285.398V458.5H284.21V453.847H283.352V452.912H284.21V451.955C284.21 450.877 284.859 450.162 285.816 450.162C286.168 450.162 286.465 450.217 286.751 450.316V451.317C286.564 451.262 286.388 451.229 286.179 451.229C285.717 451.229 285.409 451.559 285.398 452.054ZM290.717 452.692C292.499 452.692 293.753 453.935 293.753 455.706C293.753 457.477 292.499 458.72 290.717 458.72C288.924 458.72 287.681 457.477 287.681 455.706C287.681 453.935 288.924 452.692 290.717 452.692ZM290.717 457.653C291.784 457.653 292.565 456.839 292.565 455.706C292.565 454.573 291.784 453.759 290.717 453.759C289.639 453.759 288.88 454.573 288.88 455.706C288.88 456.839 289.639 457.653 290.717 457.653ZM295.067 452.912H296.222V453.627C296.563 453.055 297.102 452.714 297.74 452.714C297.96 452.714 298.213 452.769 298.455 452.857V453.924C298.147 453.792 297.806 453.748 297.586 453.748C296.794 453.748 296.266 454.452 296.266 455.442V458.5H295.067V452.912ZM300.203 455.189H303.679C303.547 454.309 302.843 453.693 301.919 453.693C301.017 453.693 300.357 454.298 300.203 455.189ZM298.96 455.64C298.96 453.924 300.214 452.692 301.952 452.692C303.69 452.692 304.922 453.924 304.922 455.651C304.922 455.783 304.911 455.948 304.9 456.08L300.192 456.069C300.335 457.059 301.028 457.719 301.941 457.719C302.689 457.719 303.382 457.279 303.591 456.663L304.713 456.828C304.394 457.928 303.239 458.72 301.963 458.72C300.214 458.72 298.96 457.433 298.96 455.64ZM306.712 458.654C306.283 458.654 305.975 458.346 305.975 457.917C305.975 457.499 306.283 457.202 306.712 457.202C307.152 457.202 307.449 457.499 307.449 457.917C307.449 458.346 307.152 458.654 306.712 458.654Z" fill="black"/>
<path d="M166.07 472.614C166.07 474.512 164.497 475.825 162.144 475.825C159.791 475.825 158.101 474.408 158.101 472.458H160.064C160.064 473.459 160.961 474.174 162.209 474.174C163.275 474.174 163.938 473.641 163.938 472.9C163.938 472.029 162.937 471.899 161.793 471.756C159.96 471.522 158.192 471.132 158.192 468.974C158.192 467.167 159.739 465.919 161.975 465.919C164.224 465.919 165.849 467.271 165.849 469.13H163.951C163.964 468.22 163.145 467.57 162.027 467.57C161 467.57 160.324 468.051 160.324 468.727C160.324 469.598 161.247 469.728 162.417 469.884C164.211 470.092 166.07 470.482 166.07 472.614ZM167.842 473.342V470.326H166.906V468.844H167.933L168.154 467.167H169.792V468.844H171.3V470.326H169.792V473.147C169.792 473.706 170.13 474.083 170.676 474.083C170.858 474.083 171.144 474.044 171.365 473.979V475.552C170.962 475.682 170.442 475.76 170.026 475.76C168.7 475.76 167.842 474.759 167.842 473.342ZM176.149 474.044C177.163 474.044 177.891 473.251 177.891 472.172C177.891 471.093 177.163 470.3 176.149 470.3C175.135 470.3 174.407 471.093 174.407 472.172C174.407 473.251 175.135 474.044 176.149 474.044ZM177.904 469.767V468.844H179.854V475.5H177.904V474.577C177.384 475.318 176.591 475.76 175.642 475.76C173.77 475.76 172.457 474.278 172.457 472.172C172.457 470.066 173.77 468.584 175.642 468.584C176.591 468.584 177.384 469.026 177.904 469.767ZM181.827 478.269V476.826C182.061 476.904 182.386 476.956 182.62 476.956C183.452 476.956 183.777 476.371 184.076 475.565L180.93 468.844H183.062L184.869 473.134L186.351 468.844H188.379L185.805 475.734C185.181 477.45 184.466 478.503 183.114 478.503C182.698 478.503 182.191 478.412 181.827 478.269ZM193.931 473.342V470.326H192.995V468.844H194.022L194.243 467.167H195.881V468.844H197.389V470.326H195.881V473.147C195.881 473.706 196.219 474.083 196.765 474.083C196.947 474.083 197.233 474.044 197.454 473.979V475.552C197.051 475.682 196.531 475.76 196.115 475.76C194.789 475.76 193.931 474.759 193.931 473.342ZM205.241 475.5H203.343V474.59C202.875 475.318 202.095 475.76 201.224 475.76C199.729 475.76 198.715 474.603 198.715 473.004V468.844H200.665V472.666C200.665 473.472 201.133 474.044 201.9 474.044C202.667 474.044 203.291 473.433 203.291 472.588V468.844H205.241V475.5ZM206.931 468.844H208.829V469.741C209.297 469.026 210.077 468.584 210.948 468.584C212.443 468.584 213.457 469.741 213.457 471.34V475.5H211.507V471.678C211.507 470.872 211.039 470.3 210.272 470.3C209.505 470.3 208.881 470.911 208.881 471.756V475.5H206.931V468.844ZM216.721 471.548H219.997C219.88 470.703 219.23 470.079 218.346 470.079C217.488 470.079 216.89 470.664 216.721 471.548ZM214.719 472.12C214.719 470.04 216.24 468.584 218.385 468.584C220.517 468.584 221.973 470.04 221.973 472.146C221.973 472.315 221.973 472.588 221.947 472.731L216.734 472.718C216.903 473.654 217.54 474.265 218.424 474.265C219.152 474.265 219.763 473.849 219.971 473.264L221.726 473.511C221.401 474.811 219.997 475.76 218.372 475.76C216.227 475.76 214.719 474.265 214.719 472.12ZM226.752 470.339C225.738 470.339 225.01 471.119 225.01 472.172C225.01 473.238 225.751 474.005 226.752 474.005C227.766 474.005 228.494 473.225 228.494 472.172C228.494 471.119 227.766 470.339 226.752 470.339ZM223.06 472.172C223.06 470.066 224.373 468.584 226.219 468.584C227.129 468.584 227.896 468.974 228.416 469.65V465.854H230.366V475.5H228.442V474.694C227.922 475.357 227.155 475.76 226.219 475.76C224.373 475.76 223.06 474.278 223.06 472.172ZM232.887 475.708C232.237 475.708 231.756 475.253 231.756 474.603C231.756 473.966 232.237 473.511 232.887 473.511C233.55 473.511 234.018 473.966 234.018 474.603C234.018 475.253 233.55 475.708 232.887 475.708Z" fill="#FF7A00"/>
</g>
<defs>
<clipPath id="clip0_1435_6220">
<rect width="393" height="886" fill="white"/>
</clipPath>
</defs>
</svg>
