<svg width="20" height="16" viewBox="0 0 20 16" fill="none" xmlns="http://www.w3.org/2000/svg">
<path d="M12.698 15.3334H0.718753C0.325835 15.3334 0 15.0076 0 14.6146V6.46878C0 2.90376 2.90376 0 6.46878 0H12.698C16.263 0 19.1667 2.90376 19.1667 6.46878V8.86462C19.1667 12.4296 16.263 15.3334 12.698 15.3334ZM1.43751 13.8959H12.698C15.4676 13.8959 17.7292 11.6342 17.7292 8.86462V6.46878C17.7292 3.6896 15.4676 1.43751 12.698 1.43751H6.46878C3.69918 1.43751 1.43751 3.6896 1.43751 6.46878V13.8959Z" fill="#252525"/>
<path d="M5.74935 8.62345C5.50019 8.62345 5.25102 8.51803 5.06893 8.34553C4.89643 8.16344 4.79102 7.91428 4.79102 7.66511C4.79102 7.40636 4.89643 7.16677 5.06893 6.98469C5.42352 6.6301 6.07519 6.6301 6.42977 6.98469C6.46811 7.03261 6.50644 7.08052 6.54477 7.12844C6.58311 7.18594 6.61186 7.24344 6.63102 7.30094C6.65977 7.35844 6.67894 7.41594 6.68852 7.47344C6.69811 7.54052 6.70769 7.60761 6.70769 7.66511C6.70769 7.72261 6.69811 7.78969 6.68852 7.85678C6.67894 7.91428 6.65977 7.97178 6.63102 8.02928C6.61186 8.08678 6.58311 8.14428 6.54477 8.19219C6.50644 8.24969 6.46811 8.29761 6.42977 8.34553C6.24769 8.51803 5.99852 8.62345 5.74935 8.62345Z" fill="#252525"/>
<path d="M9.58334 8.62761C9.45875 8.62761 9.33417 8.59886 9.21917 8.55094C9.09459 8.50303 8.99875 8.43594 8.90292 8.34969C8.73042 8.16761 8.625 7.91844 8.625 7.66927C8.625 7.54469 8.65375 7.42011 8.70167 7.30511C8.74958 7.18052 8.81667 7.08469 8.90292 6.98885C8.99875 6.9026 9.09459 6.83552 9.21917 6.7876C9.39167 6.71094 9.58334 6.69177 9.76542 6.7301C9.8325 6.73969 9.89001 6.75885 9.94751 6.7876C10.005 6.80677 10.0625 6.83552 10.1104 6.87385C10.1679 6.9026 10.2158 6.95052 10.2638 6.98885C10.35 7.08469 10.4171 7.18052 10.465 7.30511C10.5129 7.42011 10.5417 7.54469 10.5417 7.66927C10.5417 7.91844 10.4363 8.16761 10.2638 8.34969C10.2158 8.38803 10.1679 8.43594 10.1104 8.46469C10.0625 8.50303 10.005 8.53178 9.94751 8.55094C9.89001 8.5797 9.8325 8.59886 9.76542 8.60844C9.70792 8.61803 9.64084 8.62761 9.58334 8.62761Z" fill="#252525"/>
<path d="M13.4173 8.62481C13.3598 8.62481 13.2927 8.61523 13.2352 8.60564C13.1682 8.59606 13.1107 8.57689 13.0532 8.54814C12.9957 8.52898 12.9382 8.50023 12.8807 8.46189C12.8327 8.42356 12.7848 8.38523 12.7369 8.34689C12.5644 8.16481 12.459 7.92523 12.459 7.66647C12.459 7.54189 12.4877 7.41731 12.5357 7.30231C12.5836 7.18731 12.6507 7.08189 12.7369 6.98605C12.7848 6.94772 12.8327 6.90939 12.8807 6.87105C12.9382 6.83272 12.9957 6.80397 13.0532 6.7848C13.1107 6.75605 13.1682 6.73689 13.2352 6.7273C13.5419 6.6698 13.8677 6.76564 14.0977 6.98605C14.2702 7.16814 14.3757 7.41731 14.3757 7.66647C14.3757 7.72397 14.3661 7.79106 14.3565 7.85814C14.3469 7.91564 14.3277 7.97314 14.299 8.03064C14.2798 8.08814 14.2511 8.14564 14.2127 8.20314C14.1744 8.25106 14.1361 8.29898 14.0977 8.34689C13.9157 8.51939 13.6665 8.62481 13.4173 8.62481Z" fill="#252525"/>
</svg>
