<svg width="16" height="17" viewBox="0 0 16 17" fill="none" xmlns="http://www.w3.org/2000/svg">
<g clip-path="url(#clip0_148_767)">
<path d="M13.3333 6.33333H7.33333C6.59695 6.33333 6 6.93028 6 7.66666V13.6667C6 14.403 6.59695 15 7.33333 15H13.3333C14.0697 15 14.6667 14.403 14.6667 13.6667V7.66666C14.6667 6.93028 14.0697 6.33333 13.3333 6.33333Z" stroke="#7C7F82" stroke-width="1.5" stroke-linecap="round" stroke-linejoin="round"/>
<path d="M3.33333 10.3333H2.66667C2.31304 10.3333 1.9739 10.1928 1.72386 9.9428C1.47381 9.69275 1.33333 9.35361 1.33333 8.99999V2.99999C1.33333 2.64637 1.47381 2.30723 1.72386 2.05718C1.9739 1.80713 2.31304 1.66666 2.66667 1.66666H8.66667C9.02029 1.66666 9.35943 1.80713 9.60947 2.05718C9.85952 2.30723 10 2.64637 10 2.99999V3.66666" stroke="#7C7F82" stroke-width="1.5" stroke-linecap="round" stroke-linejoin="round"/>
</g>
<defs>
<clipPath id="clip0_148_767">
<rect width="16" height="16" fill="white" transform="translate(0 0.333328)"/>
</clipPath>
</defs>
</svg>
