<svg width="23" height="22" viewBox="0 0 23 22" fill="none" xmlns="http://www.w3.org/2000/svg">
<path d="M11.4961 15.4373C11.1166 15.4373 10.8086 15.1293 10.8086 14.7498V9.32031C10.8086 8.94081 11.1166 8.63281 11.4961 8.63281C11.8756 8.63281 12.1836 8.94081 12.1836 9.32031V14.7498C12.1836 15.1297 11.8759 15.4373 11.4961 15.4373Z" fill="#F0B13F"/>
<path d="M11.4961 7.9441C11.3139 7.9441 11.1386 7.87192 11.0114 7.74129C10.8808 7.6141 10.8086 7.43879 10.8086 7.2566C10.8086 7.07442 10.8808 6.8991 11.0114 6.77192C11.2658 6.5141 11.7264 6.5141 11.9808 6.76848C12.1114 6.8991 12.1836 7.07442 12.1836 7.2566C12.1836 7.43535 12.1114 7.6141 11.9808 7.74129C11.8536 7.87192 11.6783 7.9441 11.4961 7.9441Z" fill="#F0B13F"/>
<path d="M11.4739 19.9397C10.6919 19.9397 9.91675 19.838 9.16978 19.6369C5.9509 18.771 3.43053 16.1045 2.74887 12.8433C2.05416 9.521 3.33634 6.0285 6.01587 3.94572C7.56481 2.74156 9.51834 2.07812 11.5169 2.07812C12.9005 2.07812 14.2745 2.39988 15.4907 3.00797C18.494 4.5105 20.4345 7.64963 20.4345 11.0057C20.4345 13.744 19.1423 16.3833 16.9781 18.0656C15.4236 19.2742 13.4687 19.9397 11.4739 19.9397ZM11.5172 3.45313C9.8229 3.45313 8.16878 4.01344 6.86012 5.03128C4.59241 6.79403 3.50684 9.74994 4.095 12.5618C4.67181 15.3204 6.80409 17.5764 9.52728 18.309C10.1577 18.4784 10.8129 18.5647 11.4739 18.5647C13.1645 18.5647 14.8197 18.002 16.1345 16.98C17.9663 15.5562 19.0598 13.3229 19.0598 11.0057C19.0598 8.16594 17.4177 5.50944 14.876 4.23791C13.8496 3.72469 12.6884 3.45313 11.5172 3.45313Z" fill="#F0B13F"/>
</svg>
