<svg width="18" height="19" viewBox="0 0 18 19" fill="none" xmlns="http://www.w3.org/2000/svg">
<path fill-rule="evenodd" clip-rule="evenodd" d="M4.44642 4.44642C5.37254 3.52029 6.62863 3 7.93837 3C9.24811 3 10.5042 3.52029 11.4303 4.44642C12.3565 5.37254 12.8767 6.62863 12.8767 7.93837C12.8767 9.85232 11.6343 11.6943 10.2946 13.1084C9.63496 13.8047 8.97363 14.3743 8.47665 14.7701C8.26086 14.9419 8.07682 15.0803 7.93837 15.1815C7.79992 15.0803 7.61588 14.9419 7.40009 14.7701C6.90311 14.3743 6.24179 13.8047 5.58216 13.1084C4.24246 11.6943 3 9.85232 3 7.93837C3 6.62863 3.52029 5.37254 4.44642 4.44642ZM7.66074 16.2096C7.66089 16.2097 7.66102 16.2098 7.93837 15.7938L7.66102 16.2098C7.82897 16.3218 8.04777 16.3218 8.21572 16.2098L7.93837 15.7938C8.21572 16.2098 8.21585 16.2097 8.216 16.2096L8.21641 16.2094L8.21759 16.2086L8.22143 16.206L8.2349 16.1969C8.24642 16.1891 8.26294 16.1778 8.28413 16.1631C8.32652 16.1337 8.38763 16.0908 8.4648 16.0351C8.61908 15.9237 8.83783 15.7608 9.09958 15.5523C9.6223 15.1361 10.3206 14.535 11.0205 13.7961C12.4 12.34 13.8767 10.2543 13.8767 7.93837C13.8767 6.36342 13.2511 4.85297 12.1374 3.73931C11.0238 2.62565 9.51333 2 7.93837 2C6.36342 2 4.85297 2.62565 3.73931 3.73931C2.62565 4.85297 2 6.36342 2 7.93837C2 10.2543 3.47672 12.34 4.85621 13.7961C5.55618 14.535 6.25445 15.1361 6.77716 15.5523C7.03892 15.7608 7.25767 15.9237 7.41195 16.0351C7.48911 16.0908 7.55023 16.1337 7.59261 16.1631L7.61439 16.1781L7.64184 16.1969L7.65531 16.206L7.65915 16.2086L7.66033 16.2094L7.66074 16.2096ZM6.625 7.93779C6.625 7.21276 7.21276 6.625 7.93779 6.625C8.66282 6.625 9.25058 7.21276 9.25058 7.93779C9.25058 8.66282 8.66282 9.25058 7.93779 9.25058C7.21276 9.25058 6.625 8.66282 6.625 7.93779ZM7.93779 5.625C6.66047 5.625 5.625 6.66047 5.625 7.93779C5.625 9.21511 6.66047 10.2506 7.93779 10.2506C9.21511 10.2506 10.2506 9.21511 10.2506 7.93779C10.2506 6.66047 9.21511 5.625 7.93779 5.625Z" fill="#676767"/>
</svg>
