<svg width="237" height="325" viewBox="0 0 237 325" fill="none" xmlns="http://www.w3.org/2000/svg">
<path opacity="0.15" d="M98.8988 89.2072L10.834 313.506C10.834 313.506 63.0354 338.081 230.269 315.375L142.856 88.4766C142.856 88.4766 138.351 90.1598 121.089 90.611C104.973 91.0336 98.8988 89.2 98.8988 89.2V89.2072Z" fill="#E89F2B"/>
<g opacity="0.7">
<path d="M235.399 316.309C235.399 320.563 183.677 324.016 119.872 324.016C56.0672 324.016 4.3457 320.563 4.3457 316.309C4.3457 312.054 56.0672 308.602 119.872 308.602C183.677 308.602 235.399 312.054 235.399 316.309Z" fill="#E89F2B"/>
</g>
<path d="M178.495 317.158C174.72 317.158 171.654 314.099 171.654 310.325C171.654 306.55 174.713 303.484 178.487 303.484C182.262 303.484 185.328 306.543 185.328 310.318C185.328 314.092 182.269 317.158 178.495 317.158Z" fill="#E89F2B"/>
<path d="M178.465 269.853C174.691 269.853 171.625 266.795 171.625 263.02C171.625 259.245 174.683 256.18 178.458 256.18C182.233 256.18 185.299 259.238 185.299 263.013C185.299 266.788 182.24 269.853 178.465 269.853Z" fill="#E89F2B"/>
<path d="M219.579 286.835C221.849 287.171 224.206 287.436 226.161 288.733C227.229 289.442 228.145 290.366 228.797 291.469C229.356 292.4 229.406 293.152 230.344 293.732C230.846 294.04 231.376 293.718 231.569 293.231C232.522 290.867 229.005 287.938 227.229 286.899C224.872 285.517 221.943 284.815 219.514 286.326C219.335 286.441 219.328 286.799 219.579 286.835Z" fill="#D18C2B"/>
<path d="M227.494 295.376C229.736 301.106 238.639 297.632 236.397 291.895C234.155 286.165 225.252 289.639 227.494 295.376Z" fill="#708CF5"/>
<path d="M110.971 318.478C102.34 319.151 93.6373 319.545 84.9777 319.323C76.3108 319.101 67.6799 317.275 59.0703 317.203C58.175 317.196 58.0318 318.471 58.8626 318.729C66.9851 321.272 76.5329 321.25 84.9777 321.415C93.7734 321.587 102.44 321.05 111.143 319.782C111.881 319.674 111.716 318.414 110.964 318.471L110.971 318.478Z" fill="#708CF5"/>
<path d="M20.2765 312.441C30.9417 313.1 41.5782 313.178 52.2577 313.007C61.913 312.849 72.6641 313.651 82.1045 311.624C82.8279 311.467 82.5772 310.492 81.9398 310.421C76.6251 309.855 71.2889 310.693 65.9599 310.815C61.0105 310.929 56.0611 311.001 51.1117 311.044C40.8333 311.123 30.5549 310.98 20.2765 310.994C19.3382 310.994 19.3525 312.383 20.2765 312.441Z" fill="#708CF5"/>
<path d="M116.652 271.641L116.623 301.444H112.719L106.094 286.532L113.915 271.641H116.652Z" fill="#F1EFE8"/>
<path d="M143.35 307.88L143.399 251.245C143.402 248.124 140.874 245.592 137.753 245.589L90.7302 245.548C87.609 245.545 85.0766 248.073 85.0739 251.194L85.0245 307.829C85.0218 310.95 87.5497 313.483 90.6709 313.486L137.694 313.527C140.815 313.529 143.347 311.001 143.35 307.88Z" fill="#708CF5"/>
<path d="M111.26 256.925L94.6355 291.515C94.1546 292.515 92.9533 292.931 91.9591 292.453L87.7242 290.418C86.7235 289.937 86.3075 288.736 86.7853 287.742L103.41 253.152C103.891 252.151 105.092 251.735 106.086 252.213L110.321 254.248C111.322 254.729 111.738 255.931 111.26 256.925Z" fill="#E89F2B"/>
<path d="M103.066 257.491C101.576 260.593 106.389 262.906 107.879 259.805C109.369 256.703 104.556 254.39 103.066 257.491Z" fill="black"/>
<path d="M98.31 267.398C96.8202 270.499 101.633 272.82 103.123 269.711C104.613 266.61 99.7998 264.296 98.31 267.398Z" fill="black"/>
<path d="M93.8315 276.702C92.3416 279.804 97.1549 282.117 98.6448 279.016C100.135 275.914 95.3213 273.601 93.8315 276.702Z" fill="black"/>
<path d="M89.9506 284.791C88.4608 287.893 93.2741 290.206 94.7639 287.105C96.2537 284.003 91.4404 281.683 89.9506 284.791Z" fill="black"/>
<path d="M124.072 313.52C124.237 313.52 124.395 313.527 124.559 313.527C124.724 313.527 124.882 313.527 125.046 313.52L125.534 308.907C125.734 308.893 125.935 308.871 126.135 308.843L127.561 313.262C127.883 313.205 128.198 313.133 128.513 313.061L128.026 308.449C128.22 308.391 128.413 308.327 128.599 308.262L130.913 312.288C131.214 312.166 131.514 312.03 131.801 311.894L130.368 307.482C130.547 307.389 130.719 307.281 130.891 307.181L133.985 310.633C134.258 310.447 134.516 310.261 134.773 310.06L132.453 306.042C132.603 305.913 132.753 305.777 132.904 305.641L136.65 308.377C136.872 308.141 137.094 307.897 137.302 307.654L134.193 304.208C134.315 304.051 134.437 303.886 134.551 303.721L138.784 305.619C138.956 305.34 139.121 305.061 139.272 304.774L135.518 302.045C135.604 301.866 135.69 301.68 135.762 301.494L140.303 302.468C140.41 302.16 140.511 301.852 140.604 301.544L136.363 299.66C136.406 299.467 136.449 299.266 136.485 299.073H141.127C141.17 298.765 141.205 298.435 141.227 298.113L136.686 297.146C136.686 297.046 136.686 296.946 136.686 296.845C136.686 296.745 136.686 296.645 136.686 296.544L141.227 295.592C141.205 295.262 141.17 294.94 141.127 294.625H136.485C136.449 294.424 136.406 294.231 136.363 294.037L140.611 292.161C140.518 291.846 140.418 291.538 140.31 291.237L135.769 292.204C135.69 292.018 135.611 291.831 135.525 291.652L139.286 288.93C139.128 288.644 138.971 288.365 138.799 288.085L134.558 289.976C134.444 289.811 134.329 289.647 134.208 289.489L137.316 286.051C137.108 285.8 136.886 285.564 136.664 285.328L132.911 288.057C132.768 287.921 132.617 287.784 132.467 287.656L134.795 283.644C134.537 283.444 134.272 283.251 134.007 283.071L130.906 286.517C130.734 286.409 130.562 286.309 130.383 286.216L131.829 281.804C131.536 281.66 131.242 281.531 130.941 281.41L128.621 285.428C128.434 285.364 128.241 285.299 128.048 285.242L128.542 280.629C128.227 280.55 127.912 280.486 127.589 280.428L126.157 284.841C125.956 284.812 125.756 284.798 125.555 284.776L125.082 280.163C124.918 280.163 124.76 280.156 124.595 280.156C124.43 280.156 124.273 280.156 124.108 280.156L123.621 284.769C123.421 284.783 123.22 284.805 123.019 284.833L121.594 280.414C121.272 280.471 120.957 280.543 120.641 280.615L121.129 285.227C120.935 285.285 120.742 285.349 120.555 285.414L118.242 281.388C117.941 281.51 117.64 281.646 117.354 281.782L118.786 286.194C118.607 286.287 118.435 286.388 118.263 286.495L115.169 283.043C114.897 283.229 114.639 283.415 114.381 283.616L116.702 287.634C116.552 287.763 116.401 287.899 116.251 288.035L112.505 285.299C112.283 285.535 112.061 285.779 111.853 286.022L114.961 289.468C114.84 289.625 114.718 289.79 114.603 289.955L110.37 288.057C110.198 288.336 110.034 288.615 109.883 288.902L113.636 291.631C113.55 291.81 113.464 291.996 113.393 292.182L108.852 291.208C108.744 291.516 108.644 291.824 108.551 292.132L112.791 294.023C112.748 294.217 112.705 294.417 112.669 294.61H108.028C107.985 294.918 107.949 295.248 107.928 295.57L112.469 296.537C112.469 296.638 112.469 296.738 112.469 296.838C112.469 296.938 112.469 297.039 112.469 297.139L107.928 298.092C107.949 298.421 107.985 298.743 108.028 299.058H112.669C112.705 299.259 112.748 299.452 112.791 299.646L108.544 301.522C108.637 301.838 108.737 302.146 108.845 302.446L113.386 301.479C113.464 301.666 113.543 301.852 113.629 302.031L109.869 304.753C110.026 305.039 110.184 305.319 110.356 305.598L114.596 303.707C114.711 303.872 114.825 304.037 114.947 304.194L111.839 307.639C112.046 307.89 112.268 308.126 112.49 308.363L116.244 305.634C116.387 305.77 116.537 305.906 116.688 306.035L114.36 310.046C114.618 310.247 114.876 310.44 115.148 310.619L118.249 307.174C118.421 307.281 118.593 307.381 118.772 307.475L117.325 311.887C117.619 312.03 117.912 312.159 118.213 312.281L120.534 308.262C120.72 308.327 120.914 308.391 121.107 308.449L120.613 313.061C120.928 313.14 121.243 313.205 121.565 313.262L122.998 308.85C123.199 308.878 123.399 308.9 123.6 308.914L124.072 313.527V313.52ZM126.422 296.824C126.422 297.827 125.605 298.636 124.602 298.636C123.6 298.636 122.79 297.819 122.79 296.817C122.79 295.814 123.607 295.004 124.61 295.004C125.612 295.004 126.422 295.821 126.422 296.824ZM124.617 287.648C129.337 287.648 133.226 291.223 133.728 295.814H128.843C128.384 293.894 126.665 292.469 124.61 292.469C124.18 292.469 123.764 292.533 123.37 292.648L120.935 288.415C122.06 287.921 123.306 287.648 124.617 287.648ZM115.434 296.809C115.434 293.78 116.91 291.094 119.173 289.425L121.608 293.658C120.77 294.453 120.248 295.57 120.248 296.817C120.248 298.063 120.763 299.18 121.601 299.975L119.159 304.201C116.895 302.532 115.427 299.839 115.434 296.809ZM120.921 305.218L123.363 300.992C123.757 301.107 124.173 301.171 124.602 301.171C126.658 301.171 128.377 299.753 128.843 297.841H133.728C133.219 302.432 129.33 305.999 124.602 305.992C123.292 305.992 122.052 305.713 120.921 305.218Z" fill="#E89F2B"/>
<path d="M136.092 296.838C136.092 290.485 130.949 285.327 124.596 285.32C118.242 285.32 113.085 290.463 113.078 296.816C113.078 303.17 118.221 308.334 124.574 308.334C130.927 308.334 136.085 303.191 136.092 296.838ZM124.61 298.643C123.607 298.643 122.798 297.826 122.798 296.824C122.798 295.821 123.614 295.011 124.617 295.011C125.62 295.011 126.429 295.828 126.429 296.831C126.429 297.833 125.613 298.643 124.61 298.643ZM120.943 288.422C122.067 287.928 123.314 287.655 124.624 287.655C129.345 287.655 133.234 291.23 133.735 295.821H128.85C128.392 293.901 126.673 292.476 124.617 292.476C124.187 292.476 123.772 292.54 123.378 292.655L120.943 288.422ZM115.442 296.824C115.442 293.794 116.917 291.108 119.181 289.439L121.616 293.672C120.778 294.467 120.255 295.584 120.255 296.831C120.255 298.077 120.771 299.194 121.609 299.989L119.166 304.215C116.903 302.546 115.435 299.853 115.442 296.824ZM123.371 301.007C123.765 301.121 124.18 301.186 124.61 301.186C126.666 301.186 128.385 299.767 128.85 297.855H133.735C133.227 302.446 129.337 306.013 124.61 306.006C123.299 306.006 122.06 305.727 120.928 305.232L123.371 301.007Z" fill="#E89F2B"/>
<path d="M135.155 296.821C135.155 290.984 130.434 286.249 124.597 286.242C118.759 286.242 114.025 290.962 114.018 296.8C114.018 302.637 118.738 307.372 124.575 307.379C130.413 307.379 135.147 302.659 135.155 296.821ZM114.383 296.8C114.383 291.163 118.96 286.6 124.597 286.607C130.234 286.607 134.796 291.184 134.789 296.821C134.789 302.458 130.212 307.021 124.575 307.014C118.938 307.014 114.376 302.437 114.383 296.8Z" fill="#D9D9D9"/>
<g style="mix-blend-mode:multiply">
<path d="M122.79 296.817C122.79 295.814 123.606 295.004 124.609 295.004C125.612 295.004 126.421 295.821 126.421 296.824C126.421 297.827 125.605 298.636 124.602 298.636C123.599 298.636 122.79 297.819 122.79 296.817ZM124.616 287.648C129.336 287.648 133.226 291.223 133.727 295.814H128.842C128.384 293.894 126.665 292.469 124.609 292.469C124.179 292.469 123.764 292.533 123.37 292.648L120.935 288.415C122.059 287.921 123.305 287.648 124.616 287.648ZM115.434 296.809C115.434 293.78 116.909 291.094 119.173 289.425L121.608 293.658C120.77 294.453 120.247 295.57 120.247 296.817C120.247 298.063 120.763 299.18 121.601 299.975L119.158 304.201C116.895 302.532 115.426 299.839 115.434 296.809ZM120.92 305.218L123.363 300.992C123.757 301.107 124.172 301.172 124.602 301.172C126.657 301.172 128.377 299.753 128.842 297.841H133.727C133.218 302.432 129.329 305.999 124.602 305.992C123.291 305.992 122.052 305.713 120.92 305.218Z" fill="white"/>
</g>
<path d="M117.533 287.157C117.533 287.157 117.562 287.178 117.562 287.157C117.562 287.135 117.533 287.135 117.533 287.157Z" fill="#F1EFE8"/>
<path d="M117.533 288.133C117.533 288.133 117.562 288.154 117.562 288.133C117.562 288.112 117.533 288.112 117.533 288.133Z" fill="#F1EFE8"/>
<path d="M224.178 284.711C224.178 277.241 215.998 271.188 205.92 271.195L205.934 298.256C216.012 298.256 224.178 292.189 224.17 284.718L224.178 284.711Z" fill="#E89F2B"/>
<path d="M213.624 306.376L213.605 270.104C213.603 266.219 210.452 263.072 206.568 263.074L154.846 263.101C150.962 263.103 147.814 266.254 147.816 270.138L147.835 306.41C147.837 310.295 150.988 313.442 154.873 313.44L206.594 313.413C210.479 313.411 213.626 310.26 213.624 306.376Z" fill="#708CF5"/>
<path d="M145.538 255.158L147.553 254.193C148.027 253.966 148.228 253.397 148 252.922L143.29 243.091C143.063 242.616 142.494 242.416 142.019 242.643L140.004 243.609C139.529 243.836 139.329 244.405 139.556 244.88L144.267 254.711C144.494 255.185 145.063 255.386 145.538 255.158Z" fill="#5A9EAA"/>
<path d="M154.27 226.524L151.576 225.735C150.942 225.549 150.277 225.912 150.092 226.546L144.247 246.509C144.061 247.143 144.425 247.807 145.059 247.993L147.753 248.782C148.387 248.967 149.052 248.604 149.237 247.97L155.082 228.008C155.268 227.374 154.904 226.709 154.27 226.524Z" fill="#488C93"/>
<path d="M140.687 210.083L139.057 212.37C138.674 212.908 138.799 213.655 139.337 214.038L149.073 220.975C149.611 221.358 150.358 221.233 150.742 220.695L152.371 218.408C152.754 217.87 152.629 217.123 152.091 216.74L142.355 209.803C141.817 209.419 141.07 209.545 140.687 210.083Z" fill="#488C93"/>
<path d="M155.524 223.239C155.689 221.627 154.522 220.18 152.903 220.015C151.291 219.851 149.844 221.018 149.68 222.637C149.515 224.249 150.682 225.695 152.301 225.86C153.92 226.025 155.36 224.857 155.524 223.239Z" fill="#708CF5"/>
<path d="M139.236 315.48L139.127 317.713C139.101 318.238 139.506 318.685 140.032 318.711L150.92 319.243C151.446 319.269 151.892 318.864 151.918 318.338L152.027 316.106C152.053 315.581 151.648 315.134 151.122 315.108L140.234 314.576C139.708 314.55 139.261 314.955 139.236 315.48Z" fill="#5A9EAA"/>
<path d="M61.9011 298.929L62.0143 301.734C62.0409 302.395 62.5976 302.908 63.2577 302.881L84.0411 302.043C84.7012 302.016 85.2147 301.46 85.1881 300.8L85.0749 297.994C85.0483 297.334 84.4916 296.821 83.8316 296.847L63.0481 297.686C62.388 297.712 61.8745 298.269 61.9011 298.929Z" fill="#488C93"/>
<path d="M58.1635 277.995L55.389 278.426C54.7362 278.527 54.2892 279.139 54.3906 279.791L56.2257 291.604C56.3271 292.257 56.9385 292.704 57.5913 292.603L60.3658 292.172C61.0186 292.07 61.4656 291.459 61.3642 290.806L59.5291 278.993C59.4277 278.34 58.8163 277.893 58.1635 277.995Z" fill="#488C93"/>
<path d="M62.6511 292.826C63.9404 293.807 64.1911 295.655 63.2098 296.944C62.2286 298.233 60.3806 298.484 59.0913 297.503C57.802 296.522 57.5513 294.674 58.5326 293.384C59.5139 292.095 61.3619 291.844 62.6511 292.826Z" fill="#708CF5"/>
<path d="M213.359 311.134L222.757 307.789L226.703 314.071L223.982 316.04L221.768 312.309L217.012 313.985L217.564 318.003L214.226 319.256L213.359 311.134Z" fill="#708CF5"/>
<path d="M72.922 305.02L66.407 303.815C65.7691 303.697 65.1563 304.119 65.0383 304.757L62.6033 317.92C62.4853 318.558 62.9068 319.171 63.5447 319.289L70.0596 320.494C70.6976 320.612 71.3104 320.191 71.4284 319.553L73.8634 306.389C73.9814 305.751 73.5599 305.138 72.922 305.02Z" fill="#5A9EAA"/>
<path d="M68.7736 309C62.7427 307.883 56.9553 311.865 55.8379 317.896L77.6697 321.936C78.787 315.905 74.8046 310.118 68.7736 309Z" fill="#D18C2B"/>
<path d="M49.616 309.91L54.1868 306.187C54.6899 305.777 54.7655 305.038 54.3559 304.534L45.9021 294.154C45.4924 293.651 44.7525 293.576 44.2495 293.985L39.6787 297.708C39.1757 298.118 39.1 298.857 39.5097 299.361L47.9634 309.741C48.3731 310.244 49.113 310.319 49.616 309.91Z" fill="#488C93"/>
<path d="M39.9661 300.53L46.9583 294.836C47.4614 294.426 47.537 293.686 47.1274 293.183L38.6736 282.803C38.2639 282.3 37.524 282.224 37.021 282.634L30.0287 288.328C29.5257 288.738 29.45 289.478 29.8597 289.981L38.3135 300.361C38.7231 300.864 39.463 300.94 39.9661 300.53Z" fill="#5A9EAA"/>
<path d="M27.0104 306.998C20.8935 306.554 15.5789 311.146 15.1348 317.263L37.2745 318.881C37.7186 312.764 33.1273 307.45 27.0104 306.998Z" fill="#D18C2B"/>
<path d="M180.005 273.476C181.079 275.324 183.335 276.621 185.047 277.853C187.038 279.285 189.051 281.155 191.343 282.043C192.468 282.48 193.17 280.904 192.453 280.138C190.87 278.461 188.485 277.373 186.537 276.155C184.668 274.988 182.576 273.319 180.37 273.004C180.105 272.968 179.854 273.211 180.012 273.476H180.005Z" fill="black"/>
<path d="M182.211 283.217C184.288 282.4 185.943 280.474 187.49 278.912C188.923 277.458 191.58 275.66 191.988 273.605C192.139 272.845 191.537 272.208 190.763 272.38C188.693 272.845 186.996 275.51 185.57 276.993C184.052 278.576 182.14 280.287 181.38 282.386C181.216 282.844 181.746 283.403 182.211 283.217Z" fill="black"/>
<path d="M180.005 300.101C181.079 301.949 183.335 303.246 185.047 304.478C187.038 305.91 189.051 307.78 191.343 308.668C192.468 309.105 193.17 307.529 192.453 306.763C190.87 305.086 188.485 303.998 186.537 302.78C184.668 301.613 182.576 299.944 180.37 299.629C180.105 299.593 179.854 299.836 180.012 300.101H180.005Z" fill="black"/>
<path d="M182.211 309.842C184.288 309.025 185.943 307.099 187.49 305.537C188.923 304.083 191.58 302.285 191.988 300.23C192.139 299.47 191.537 298.833 190.763 299.005C188.693 299.47 186.996 302.135 185.57 303.618C184.052 305.201 182.14 306.912 181.38 309.011C181.216 309.469 181.746 310.028 182.211 309.842Z" fill="black"/>
<path d="M122.489 232.943C121.701 232.556 120.942 232.183 120.125 231.775C120.655 230.063 121.171 228.387 121.722 226.718C121.801 226.475 122.052 226.26 122.274 226.102C123.176 225.458 123.756 224.598 124.244 223.603C126.693 218.632 129.186 213.689 131.678 208.74C131.807 208.489 131.986 208.26 132.266 207.838C131.413 207.472 130.69 207.214 130.031 206.849C129.845 206.749 129.737 206.319 129.773 206.068C129.823 205.746 130.074 205.46 130.203 205.152C130.382 204.715 130.618 204.607 131.12 204.693C131.471 204.75 132.101 204.528 132.223 204.256C132.352 203.977 132.122 203.382 131.857 203.117C131.521 202.781 131.506 202.559 131.7 202.172C133.906 197.781 136.098 193.383 138.311 188.993C138.848 187.918 139.758 187.331 140.947 187.238C143.003 187.08 144.607 187.904 145.71 189.623C146.362 190.647 146.405 191.757 145.846 192.875C143.661 197.215 141.484 201.556 139.321 205.911C139.099 206.355 138.898 206.541 138.347 206.398C138.032 206.319 137.48 206.534 137.287 206.792C137.136 206.992 137.258 207.658 137.473 207.816C138.132 208.282 137.96 208.719 137.645 209.249C137.444 209.585 137.272 209.936 136.957 210.531C136.148 209.972 135.381 209.449 134.5 208.84C133.999 209.908 133.655 210.674 133.276 211.433C130.926 216.132 128.563 220.831 126.228 225.536C125.998 226.002 125.834 226.554 125.834 227.069C125.834 228.086 125.511 228.917 124.874 229.705C124.036 230.737 123.298 231.854 122.51 232.943H122.489ZM135.095 202.68C135.217 202.516 135.46 202.251 135.618 201.936C137.416 198.369 139.206 194.787 140.997 191.213C141.083 191.034 141.248 190.833 141.219 190.676C141.155 190.346 141.054 189.866 140.825 189.766C140.546 189.644 140.102 189.788 139.772 189.924C139.607 189.988 139.529 190.289 139.428 190.49C137.659 194.014 135.897 197.538 134.128 201.062C134.028 201.262 133.906 201.47 133.856 201.685C133.713 202.337 134.286 202.903 135.095 202.68ZM138.103 204.199C138.218 204.049 138.461 203.812 138.605 203.526C140.431 199.909 142.243 196.284 144.055 192.653C144.141 192.474 144.234 192.295 144.263 192.101C144.363 191.442 143.719 190.912 143.131 191.206C142.859 191.342 142.63 191.657 142.487 191.944C140.682 195.511 138.898 199.085 137.108 202.666C137.007 202.867 136.893 203.074 136.857 203.296C136.764 203.912 137.344 204.414 138.096 204.206L138.103 204.199Z" fill="black"/>
<path d="M137.135 215.081L142.593 206.737L137.422 201.422L134.865 203.606L137.966 206.629L135.223 210.855L131.441 209.38L129.436 212.323L137.135 215.081Z" fill="#708CF5"/>
<path d="M131.233 243.344H97.9839C97.5527 243.344 97.2031 243.693 97.2031 244.124V246.918C97.2031 247.349 97.5527 247.699 97.9839 247.699H131.233C131.664 247.699 132.014 247.349 132.014 246.918V244.124C132.014 243.693 131.664 243.344 131.233 243.344Z" fill="#264BD8"/>
<path d="M116.065 245.78C119.446 235.251 113.394 223.697 102.872 220.381C101.776 220.037 101.31 221.756 102.399 222.093C112.025 225.123 117.426 235.731 114.346 245.3C113.995 246.396 115.714 246.861 116.058 245.773L116.065 245.78Z" fill="black"/>
<path d="M119.875 240.839C121.021 240.839 121.021 239.062 119.875 239.062C118.729 239.062 118.729 240.839 119.875 240.839Z" fill="black"/>
<path d="M108.313 232.534C109.459 232.534 109.459 230.758 108.313 230.758C107.167 230.758 107.167 232.534 108.313 232.534Z" fill="black"/>
<path d="M102.27 232.88C101.267 232.88 100.272 232.436 99.6915 231.648C99.4695 231.34 99.3119 230.989 99.2331 230.61C99.1973 230.61 99.1543 230.595 99.1113 230.588C98.2017 230.373 97.4711 229.535 97.292 228.49C97.2204 228.067 97.2276 227.623 97.3207 227.15C97.1273 227.107 96.9339 227.043 96.7477 226.957C96.5758 226.878 95.6876 226.434 95.3796 225.381C95.2507 224.951 95.2435 224.486 95.3438 223.991C94.5989 223.655 93.9256 223.025 93.5603 222.287C93.1592 221.47 93.152 220.611 93.5531 219.801C93.6606 219.579 93.9256 219.493 94.1476 219.601C94.3697 219.708 94.4556 219.973 94.3482 220.195C94.0044 220.89 94.162 221.506 94.3553 221.893C94.6132 222.416 95.0931 222.881 95.6231 223.139C95.7521 222.845 95.9168 222.552 96.1174 222.244C96.6474 221.427 97.9438 220.976 98.789 221.091C99.3334 221.162 99.7202 221.449 99.8563 221.893C99.978 222.337 99.8563 222.788 99.4981 223.168C98.8177 223.898 97.3279 224.378 96.2033 224.235C96.146 224.564 96.1532 224.858 96.232 225.13C96.4397 225.839 97.0843 226.133 97.113 226.147C97.2634 226.212 97.4138 226.262 97.5714 226.298C97.6215 226.162 97.6788 226.019 97.7433 225.882C98.1516 224.966 98.6673 224.421 99.3191 224.206C99.8205 224.042 100.408 224.156 100.83 224.486C101.181 224.765 101.368 225.159 101.332 225.574C101.282 226.176 100.795 226.685 100.028 226.935C99.5196 227.1 98.875 227.25 98.2089 227.258C98.1229 227.644 98.1157 228.01 98.1659 228.346C98.2733 228.977 98.6888 229.507 99.1901 229.693C99.1973 229.614 99.2116 229.528 99.226 229.449C99.362 228.712 99.7775 228.067 100.358 227.702C101.002 227.286 101.941 227.25 102.413 227.895C102.8 228.425 102.635 229.134 102.284 229.564C101.962 229.958 101.518 230.166 101.081 230.338C100.795 230.452 100.479 230.56 100.157 230.617C100.214 230.81 100.3 230.989 100.415 231.147C101.009 231.956 102.284 232.257 103.266 231.806C103.488 231.706 103.753 231.806 103.853 232.021C103.953 232.243 103.853 232.508 103.638 232.608C103.208 232.809 102.743 232.902 102.277 232.902L102.27 232.88ZM101.375 228.268C101.203 228.268 101.002 228.332 100.845 228.432C100.465 228.676 100.2 229.098 100.107 229.6C100.107 229.636 100.093 229.664 100.093 229.7C100.322 229.65 100.551 229.571 100.766 229.485C101.088 229.363 101.411 229.213 101.604 228.977C101.754 228.79 101.797 228.533 101.697 228.397C101.633 228.311 101.511 228.268 101.375 228.268ZM99.7918 225.016C99.7202 225.016 99.6557 225.023 99.5984 225.044C99.1973 225.18 98.8535 225.567 98.5527 226.248C98.5383 226.284 98.524 226.319 98.5097 226.355C98.9609 226.319 99.3979 226.212 99.756 226.09C100.085 225.983 100.422 225.761 100.444 225.496C100.458 225.352 100.365 225.245 100.279 225.18C100.143 225.073 99.9637 225.016 99.7918 225.016ZM96.497 223.368C97.3135 223.397 98.3951 223.046 98.8463 222.559C99.0612 222.33 99.0182 222.194 99.0039 222.144C98.9753 222.058 98.8607 221.993 98.6673 221.972C98.0584 221.886 97.1559 222.265 96.8623 222.724C96.719 222.946 96.5973 223.161 96.497 223.368Z" fill="black"/>
<path d="M64.8374 263.32C64.7156 263.32 64.5938 263.27 64.5079 263.177C63.3977 261.959 63.2616 260.018 64.1856 258.75C64.4362 258.407 64.7657 258.127 65.1453 257.912C65.1382 257.855 65.131 257.798 65.1239 257.748C65.0451 256.731 65.6825 255.692 66.7068 255.162C67.1366 254.94 67.6236 254.797 68.1608 254.739C68.1393 254.51 68.1393 254.267 68.168 254.03C68.1895 253.823 68.3614 252.755 69.357 252.082C69.7724 251.803 70.2666 251.631 70.8397 251.581C70.9328 250.678 71.3768 249.747 72.0358 249.11C72.7521 248.415 73.6474 248.135 74.6215 248.279C74.8651 248.314 75.0298 248.544 74.994 248.787C74.9582 249.031 74.7576 249.203 74.4854 249.16C73.6188 249.031 73.0028 249.41 72.6446 249.754C72.1576 250.227 71.8209 250.922 71.7278 251.595C72.0931 251.631 72.4799 251.71 72.8882 251.817C73.9124 252.096 74.8078 253.307 74.9725 254.216C75.0799 254.804 74.908 255.284 74.4998 255.57C74.0843 255.842 73.5901 255.857 73.0744 255.613C72.0716 255.14 71.0689 253.708 70.854 252.469C70.46 252.512 70.1234 252.626 69.844 252.813C69.1493 253.285 69.049 254.095 69.0418 254.123C69.0203 254.317 69.0203 254.517 69.0418 254.704C69.2137 254.711 69.4 254.725 69.579 254.747C70.6678 254.868 71.4127 255.226 71.8567 255.828C72.1862 256.286 72.265 256.931 72.0573 257.483C71.8854 257.934 71.5416 258.249 71.1118 258.342C70.4744 258.478 69.7939 258.149 69.2854 257.44C68.9344 256.953 68.5548 256.308 68.3327 255.592C67.8671 255.635 67.4589 255.742 67.1079 255.928C66.4418 256.279 65.9977 256.938 65.9977 257.569C66.1051 257.547 66.2126 257.526 66.3272 257.511C67.1509 257.411 67.9459 257.626 68.5261 258.113C69.1636 258.643 69.5146 259.596 69.006 260.283C68.5906 260.849 67.8099 260.914 67.2512 260.692C66.7426 260.491 66.3773 260.09 66.055 259.689C65.833 259.409 65.6038 259.101 65.4247 258.758C65.217 258.894 65.0379 259.058 64.8946 259.252C64.2214 260.176 64.336 261.651 65.1597 262.554C65.3244 262.733 65.3101 263.019 65.131 263.184C65.0451 263.263 64.9376 263.299 64.8302 263.299L64.8374 263.32ZM66.2627 258.442C66.3988 258.693 66.5779 258.937 66.7569 259.152C67.0434 259.503 67.2941 259.768 67.595 259.882C67.8242 259.975 68.1608 259.961 68.3041 259.768C68.4831 259.524 68.2754 259.058 67.9746 258.808C67.5806 258.485 67.022 258.335 66.449 258.407C66.3845 258.414 66.3272 258.421 66.2627 258.435V258.442ZM69.2854 255.62C69.4787 256.122 69.7581 256.58 70.0159 256.938C70.2308 257.239 70.6033 257.561 70.9256 257.49C71.0975 257.454 71.1906 257.304 71.2336 257.182C71.3339 256.917 71.2981 256.58 71.1405 256.365C70.854 255.971 70.3168 255.735 69.4859 255.642C69.4143 255.635 69.3427 255.628 69.2782 255.62H69.2854ZM71.778 252.49C72 253.4 72.7664 254.481 73.4683 254.811C73.805 254.969 73.9626 254.868 74.0127 254.84C74.113 254.768 74.1488 254.61 74.1058 254.374C73.9841 253.679 73.2678 252.841 72.6661 252.669C72.351 252.583 72.0573 252.526 71.7851 252.49H71.778Z" fill="black"/>
<path d="M124.141 242.606C123.561 242.606 122.981 242.492 122.444 242.241C122.222 242.141 122.121 241.876 122.229 241.654C122.336 241.432 122.601 241.338 122.816 241.439C124.134 242.048 125.81 241.661 126.62 240.551C126.799 240.3 126.935 240.013 127.006 239.698C126.548 239.627 126.104 239.483 125.703 239.326C125.158 239.118 124.607 238.853 124.213 238.373C123.79 237.857 123.597 237.012 124.048 236.382C124.607 235.615 125.739 235.673 126.512 236.167C127.228 236.625 127.737 237.413 127.909 238.33C127.937 238.481 127.959 238.638 127.966 238.789C128.718 238.602 129.356 237.836 129.513 236.919C129.592 236.446 129.571 235.931 129.442 235.379C128.525 235.365 127.715 235.193 127.049 234.978C126.125 234.677 125.531 234.061 125.466 233.338C125.423 232.858 125.638 232.385 126.054 232.056C126.569 231.647 127.279 231.511 127.88 231.712C128.682 231.977 129.313 232.657 129.828 233.796C129.922 234.011 130.007 234.219 130.086 234.426C130.33 234.383 130.573 234.312 130.803 234.204C130.896 234.161 131.727 233.768 132.006 232.822C132.12 232.421 132.128 231.984 132.02 231.497C130.602 231.712 128.661 231.124 127.787 230.179C127.243 229.592 127.25 229.04 127.35 228.682C127.522 228.145 127.973 227.808 128.625 227.722C129.649 227.572 131.275 228.131 131.927 229.148C132.206 229.577 132.428 229.993 132.6 230.401C133.345 230.064 134.04 229.427 134.405 228.689C134.663 228.166 134.878 227.335 134.42 226.397C134.312 226.175 134.405 225.91 134.62 225.803C134.842 225.695 135.107 225.788 135.215 226.003C135.702 227.006 135.702 228.066 135.2 229.076C134.728 230.029 133.847 230.838 132.88 231.239C133.037 231.891 133.03 232.5 132.865 233.058C132.471 234.383 131.304 234.942 131.175 234.999C130.903 235.121 130.623 235.207 130.344 235.265C130.48 235.895 130.502 236.489 130.401 237.048C130.179 238.337 129.277 239.376 128.16 239.634C128.081 239.655 128.002 239.67 127.923 239.677C127.83 240.178 127.637 240.644 127.343 241.045C126.627 242.026 125.388 242.578 124.141 242.578V242.606ZM125.294 236.69C125.08 236.69 124.886 236.754 124.779 236.905C124.6 237.155 124.707 237.557 124.908 237.807C125.173 238.13 125.61 238.33 126.032 238.495C126.362 238.624 126.727 238.746 127.085 238.81C127.085 238.71 127.064 238.602 127.042 238.502C126.913 237.822 126.548 237.249 126.039 236.919C125.817 236.776 125.538 236.69 125.294 236.69ZM127.322 232.514C127.078 232.514 126.813 232.6 126.62 232.758C126.491 232.858 126.34 233.03 126.362 233.266C126.398 233.689 126.906 233.997 127.336 234.14C127.859 234.312 128.503 234.469 129.169 234.498C129.126 234.391 129.084 234.283 129.033 234.176C128.632 233.28 128.167 232.75 127.615 232.571C127.529 232.543 127.429 232.528 127.329 232.528L127.322 232.514ZM128.976 228.596C128.897 228.596 128.811 228.596 128.74 228.61C128.439 228.653 128.26 228.761 128.202 228.94C128.188 228.997 128.124 229.234 128.439 229.577C129.069 230.258 130.623 230.745 131.727 230.637C131.583 230.315 131.397 229.986 131.175 229.635C130.81 229.069 129.778 228.596 128.976 228.596Z" fill="black"/>
<path d="M112.447 244.976C112.963 241.015 111.1 237.04 107.24 235.443C102.591 233.523 98.2363 236.596 95.3927 240.098C91.1094 245.385 88.2157 252.275 86.2245 258.729C83.6531 267.066 83.2592 276.227 77.4073 283.175C76.6767 284.041 77.923 285.309 78.6679 284.435C84.3121 277.731 85.1214 269.315 87.3777 261.15C88.8818 255.699 91.0593 250.434 93.9172 245.549C95.5288 242.792 97.3409 239.776 100.091 238.014C105.399 234.612 111.451 238.924 110.663 244.976C110.513 246.108 112.297 246.101 112.44 244.976H112.447Z" fill="black"/>
<path d="M139.629 252.412C139.614 253.1 139.564 253.802 139.643 254.489C139.657 254.611 139.822 254.611 139.836 254.489C139.915 253.802 139.865 253.107 139.851 252.412C139.851 252.269 139.629 252.269 139.629 252.412Z" fill="#264BD8"/>
<path d="M90.1411 255.899C89.4964 256.959 89.2744 258.42 89.6755 259.588C89.7543 259.817 90.1268 259.86 90.1841 259.588C90.4276 258.442 90.4706 257.138 90.4276 255.971C90.4276 255.82 90.227 255.763 90.1411 255.892V255.899Z" fill="#264BD8"/>
<path d="M138.597 255.114C138.74 255.3 138.869 255.443 139.055 255.593C139.148 255.665 139.299 255.579 139.227 255.457C139.105 255.257 138.984 255.106 138.812 254.949C138.704 254.849 138.497 254.985 138.597 255.114Z" fill="#264BD8"/>
<path d="M140.788 254.619C140.731 255.335 140.774 256.052 140.759 256.768C140.752 257.484 140.652 258.208 140.738 258.924C140.759 259.096 141.024 259.167 141.067 258.967C141.354 257.656 141.196 255.908 140.845 254.612C140.838 254.583 140.795 254.591 140.788 254.619Z" fill="#264BD8"/>
<path d="M86.7384 304.856C86.6597 305.264 86.6238 305.644 86.6668 306.066C86.6883 306.26 86.9533 306.26 86.9748 306.066C87.0178 305.644 86.9748 305.271 86.9032 304.856C86.8889 304.777 86.7599 304.777 86.7456 304.856H86.7384Z" fill="#264BD8"/>
<path d="M87.6135 305.177C87.5562 305.822 87.4416 306.502 87.5777 307.14C87.6063 307.276 87.814 307.276 87.8427 307.14C87.9788 306.502 87.8642 305.822 87.8069 305.177C87.7997 305.055 87.6206 305.055 87.6135 305.177Z" fill="#264BD8"/>
<path d="M88.5956 307.368C88.4953 307.805 88.5813 308.357 88.746 308.772C88.8033 308.915 89.0111 308.901 89.0182 308.736C89.0397 308.292 88.9538 307.741 88.7174 307.354C88.6887 307.304 88.6028 307.311 88.5885 307.368H88.5956Z" fill="#264BD8"/>
<path d="M86.9414 307.836C86.9486 308.137 87.056 308.359 87.2207 308.617C87.2781 308.71 87.4285 308.653 87.3998 308.545C87.3282 308.252 87.2279 308.022 87.013 307.815C86.9915 307.793 86.9414 307.808 86.9414 307.843V307.836Z" fill="#264BD8"/>
<path d="M114.138 262.484C114.124 262.985 114.031 263.537 114.188 264.024C114.253 264.224 114.525 264.224 114.589 264.024C114.747 263.537 114.654 262.992 114.639 262.484C114.625 262.162 114.152 262.162 114.138 262.484Z" fill="#264BD8"/>
<path d="M114.638 262.477C114.595 262.821 114.523 263.093 114.638 263.423C114.703 263.623 114.975 263.623 115.039 263.423C115.139 263.1 115.075 262.814 115.039 262.477C115.011 262.226 114.681 262.226 114.652 262.477H114.638Z" fill="#264BD8"/>
<path d="M115.023 260.146C115.188 261.07 115.08 262.066 115.31 262.968C115.338 263.09 115.517 263.083 115.553 262.968C115.811 262.073 115.482 260.955 115.238 260.089C115.202 259.945 115.002 260.01 115.023 260.146Z" fill="#264BD8"/>
<path d="M114.215 266.135C114.107 266.522 114.086 266.923 114.394 267.203C114.494 267.296 114.695 267.238 114.68 267.088C114.652 266.787 114.537 266.558 114.594 266.236C114.637 265.992 114.286 265.885 114.222 266.135H114.215Z" fill="#264BD8"/>
<path d="M88.9233 271.513C88.9735 271.914 89.0093 272.28 89.2528 272.616C89.3316 272.724 89.5035 272.688 89.5107 272.545C89.525 272.129 89.3603 271.807 89.1812 271.442C89.1239 271.32 88.9018 271.377 88.9233 271.513Z" fill="#264BD8"/>
<path d="M89.4769 270.942C89.699 271.164 89.6703 271.322 89.7778 271.565C89.8279 271.68 90.0141 271.751 90.0858 271.608C90.2505 271.236 90.0858 270.906 89.7778 270.648C89.5772 270.476 89.2907 270.749 89.4841 270.942H89.4769Z" fill="#264BD8"/>
<path d="M96.2237 250.331C96.1592 250.939 96.0805 251.534 96.1736 252.143C96.1951 252.279 96.4243 252.279 96.4386 252.143C96.5317 251.534 96.4529 250.939 96.3884 250.331C96.3741 250.223 96.2309 250.223 96.2237 250.331Z" fill="#264BD8"/>
<path d="M96.6955 250.763C96.7242 251.5 96.6096 252.31 96.7385 253.033C96.7671 253.198 96.9892 253.162 97.0322 253.033C97.29 252.331 97.1109 251.429 96.9104 250.734C96.8746 250.619 96.6883 250.634 96.6955 250.763Z" fill="#264BD8"/>
<path d="M103.702 287.786C103.265 288.853 103.208 289.985 103.788 290.995C103.859 291.116 104.053 291.037 104.017 290.901C103.773 289.891 103.687 288.874 104.024 287.879C104.096 287.671 103.781 287.599 103.702 287.793V287.786Z" fill="#264BD8"/>
<path d="M101.774 287.528C101.76 287.765 101.745 287.929 101.81 288.159C101.846 288.288 102.039 288.288 102.075 288.159C102.139 287.929 102.125 287.765 102.111 287.528C102.096 287.313 101.788 287.313 101.774 287.528Z" fill="#264BD8"/>
<path d="M132.589 270.432C132.445 270.912 132.359 271.32 132.338 271.821C132.338 271.965 132.56 272.036 132.624 271.9C132.825 271.442 132.932 271.048 133.018 270.553C133.068 270.274 132.667 270.152 132.589 270.432Z" fill="#264BD8"/>
<path d="M133.262 271.937C133.176 272.439 132.975 272.904 132.889 273.398C132.861 273.556 133.061 273.728 133.19 273.578C133.563 273.126 133.599 272.496 133.477 271.937C133.455 271.837 133.283 271.83 133.262 271.937Z" fill="#264BD8"/>
<path d="M158.237 270.604C158.13 270.783 158.094 270.869 158.058 271.077C158.03 271.228 158.051 271.407 158.173 271.521C158.33 271.657 158.409 271.686 158.617 271.636C158.774 271.6 158.889 271.464 158.932 271.321C158.996 271.12 159.011 271.027 159.004 270.819C158.989 270.418 158.445 270.253 158.237 270.612V270.604Z" fill="#264BD8"/>
<path d="M156.224 272.162C155.959 272.498 155.78 272.856 156.037 273.243C156.116 273.365 156.331 273.358 156.367 273.2C156.439 272.899 156.374 272.599 156.453 272.298C156.481 272.176 156.31 272.047 156.224 272.162Z" fill="#264BD8"/>
<path d="M205.368 269.207C205.419 269.501 205.368 269.737 205.29 270.016C205.254 270.16 205.44 270.224 205.519 270.11C205.719 269.816 205.762 269.508 205.727 269.157C205.698 268.899 205.326 268.942 205.368 269.207Z" fill="#264BD8"/>
<path d="M206.522 269.588C206.479 269.91 206.421 270.19 206.5 270.505C206.522 270.598 206.665 270.598 206.686 270.505C206.765 270.19 206.701 269.91 206.665 269.588C206.651 269.502 206.536 269.502 206.529 269.588H206.522Z" fill="#264BD8"/>
<path d="M207.288 301.742C207.051 302.071 206.779 302.394 206.622 302.773C206.572 302.888 206.758 302.988 206.829 302.895C207.08 302.573 207.231 302.179 207.41 301.814C207.445 301.735 207.338 301.67 207.288 301.742Z" fill="#264BD8"/>
<path d="M205.453 300.867C205.453 301.261 205.431 301.655 205.453 302.056C205.453 302.178 205.639 302.178 205.646 302.056C205.668 301.663 205.646 301.269 205.646 300.867C205.646 300.746 205.453 300.739 205.453 300.867Z" fill="#264BD8"/>
<path d="M161.654 303.869C161.841 304.55 162.356 305.366 162.979 305.717C163.137 305.803 163.373 305.653 163.309 305.467C163.08 304.822 162.521 304.12 162.027 303.655C161.869 303.504 161.597 303.655 161.654 303.869Z" fill="#264BD8"/>
<path d="M159.95 305.826C160.129 306.249 160.266 306.679 160.552 307.037C160.667 307.18 160.853 307.015 160.831 306.872C160.753 306.442 160.523 306.056 160.33 305.662C160.23 305.454 159.857 305.604 159.95 305.819V305.826Z" fill="#264BD8"/>
<path d="M199.158 285.043C198.693 285.358 198.385 286.131 198.95 286.511C199.051 286.583 199.237 286.511 199.258 286.389C199.316 286.01 199.223 285.716 199.48 285.372C199.624 285.186 199.344 284.921 199.158 285.05V285.043Z" fill="#264BD8"/>
<path d="M156.647 194.327C156.862 194.749 157.07 195.172 157.292 195.595C157.321 195.652 157.442 195.681 157.521 195.681C157.886 195.695 158.252 195.716 158.61 195.688C158.739 195.681 158.904 195.587 158.975 195.48C159.176 195.194 159.34 194.878 159.505 194.563C159.591 194.406 159.684 194.355 159.856 194.406C160.322 194.549 160.794 194.678 161.253 194.807C161.253 195.236 161.267 195.659 161.253 196.075C161.246 196.304 161.282 196.461 161.518 196.554C161.718 196.633 161.919 196.733 162.077 196.884C162.406 197.199 162.7 197.127 163.029 196.884C163.301 196.683 163.617 196.54 163.824 196.418C164.283 196.819 164.705 197.199 165.142 197.579C164.891 197.98 164.677 198.352 164.44 198.71C164.318 198.897 164.29 199.033 164.44 199.226C164.591 199.419 164.741 199.642 164.813 199.871C164.927 200.222 165.157 200.293 165.486 200.265C165.765 200.236 166.052 200.265 166.338 200.236C166.568 200.215 166.653 200.315 166.704 200.53C166.804 200.945 166.933 201.361 167.047 201.769V201.905C166.646 202.127 166.245 202.335 165.858 202.571C165.765 202.628 165.687 202.772 165.679 202.879C165.665 203.302 165.536 203.803 165.722 204.118C165.916 204.448 166.417 204.598 166.79 204.806C166.954 204.899 167.019 204.999 166.961 205.185C166.84 205.579 166.732 205.973 166.632 206.367C166.582 206.561 166.489 206.625 166.295 206.604C165.959 206.575 165.615 206.575 165.271 206.553C165.092 206.539 164.992 206.589 164.906 206.768C164.755 207.084 164.569 207.392 164.369 207.678C164.261 207.836 164.254 207.943 164.354 208.101C164.583 208.466 164.791 208.838 165.02 209.239C164.884 209.361 164.763 209.461 164.648 209.569C164.519 209.684 164.397 209.798 164.276 209.92C163.774 210.414 163.753 210.45 163.187 210.042C162.707 209.698 162.356 209.691 161.812 209.984C161.224 210.307 161.045 210.643 161.102 211.267C161.16 211.89 161.117 211.904 160.508 212.054C160.157 212.14 159.742 212.355 159.462 212.241C159.204 212.133 159.075 211.682 158.925 211.367C158.789 211.087 158.638 210.951 158.302 211.001C158.015 211.044 157.707 211.016 157.414 210.987C157.213 210.966 157.106 211.03 157.013 211.209C156.819 211.567 156.611 211.918 156.397 212.291C155.917 212.155 155.451 212.011 154.971 211.897C154.763 211.847 154.728 211.739 154.735 211.56C154.749 211.231 154.771 210.901 154.749 210.572C154.749 210.45 154.656 210.3 154.556 210.235C154.233 210.02 153.897 209.827 153.553 209.648C153.46 209.598 153.295 209.605 153.195 209.648C152.88 209.805 152.586 210.006 152.271 210.163C152.192 210.199 152.042 210.206 151.984 210.156C151.612 209.791 151.254 209.411 150.889 209.039C151.111 208.674 151.333 208.344 151.519 207.993C151.576 207.893 151.569 207.721 151.519 207.614C151.347 207.27 151.132 206.947 150.953 206.604C150.867 206.432 150.767 206.382 150.581 206.389C150.187 206.403 149.793 206.389 149.406 206.389C149.384 206.346 149.37 206.324 149.363 206.303C149.277 205.98 149.191 205.665 149.112 205.343C148.955 204.72 148.933 204.684 149.535 204.426C150.072 204.197 150.323 203.889 150.187 203.294C150.151 203.137 150.172 202.951 150.208 202.786C150.273 202.471 150.144 202.313 149.871 202.177C149.578 202.034 149.169 201.898 149.069 201.654C148.969 201.411 149.177 201.031 149.27 200.716C149.456 200.035 149.456 200.043 150.151 200.043C150.308 200.043 150.473 200.043 150.631 200.057C150.81 200.078 150.917 200.014 151.003 199.849C151.189 199.498 151.419 199.169 151.605 198.818C151.655 198.725 151.669 198.56 151.619 198.467C151.433 198.109 151.218 197.765 151.082 197.529C151.497 197.049 151.87 196.619 152.235 196.203C152.543 196.39 152.822 196.533 153.066 196.719C153.352 196.941 153.596 196.984 153.897 196.741C154.112 196.569 154.391 196.454 154.649 196.347C154.842 196.268 154.935 196.168 154.921 195.946C154.9 195.638 154.921 195.33 154.9 195.022C154.878 194.785 154.971 194.706 155.186 194.656C155.602 194.556 156.017 194.427 156.432 194.312H156.64L156.647 194.327ZM163.287 203.488C163.301 200.48 160.938 198.059 157.965 198.044C155.029 198.03 152.608 200.444 152.6 203.38C152.6 206.317 154.986 208.695 157.965 208.709C160.837 208.724 163.273 206.331 163.287 203.481V203.488Z" fill="black"/>
<path d="M89.9495 198.084C89.5484 198.678 89.8134 199.344 90.501 199.502C90.723 199.552 90.9451 199.609 91.1743 199.667C92.4636 199.975 92.4492 199.975 92.4922 201.285C92.5065 201.644 92.4134 201.851 92.041 201.959C91.5969 202.08 91.1743 202.26 90.7445 202.417C90.0283 202.682 89.842 203.398 90.3434 203.971C90.4938 204.143 90.6442 204.315 90.7947 204.494C91.6327 205.461 91.6255 205.454 90.8663 206.536C90.6586 206.829 90.458 206.944 90.1071 206.815C89.6558 206.65 89.1902 206.536 88.7318 206.407C88.1302 206.235 87.4998 206.729 87.5357 207.352C87.5643 207.868 87.6216 208.384 87.6574 208.899C87.6646 209.043 87.6574 209.286 87.5858 209.322C87.1059 209.551 86.6117 209.802 86.096 209.888C85.9097 209.916 85.6447 209.501 85.437 209.272C85.2723 209.086 85.129 208.878 84.9786 208.684C84.3411 207.868 83.6607 207.911 83.1306 208.792C82.9157 209.15 82.7009 209.515 82.4717 209.873C82.4072 209.981 82.2783 210.153 82.2066 210.138C81.6838 210.031 81.1322 209.952 80.6667 209.723C80.4948 209.637 80.4948 209.157 80.459 208.849C80.4231 208.548 80.4375 208.24 80.4303 207.932C80.4231 207.216 79.7212 206.743 79.0694 207.016C78.6253 207.202 78.1956 207.402 77.7443 207.574C77.6011 207.624 77.3504 207.667 77.2859 207.596C76.9278 207.202 76.5195 206.808 76.3189 206.335C76.233 206.127 76.6198 205.726 76.7988 205.418C76.892 205.253 77.0066 205.096 77.114 204.938C77.6727 204.122 77.4148 203.477 76.4479 203.248C76.0396 203.148 75.6242 203.069 75.2159 202.954C75.1013 202.926 74.9151 202.84 74.9079 202.761C74.8506 202.209 74.7575 201.644 74.8434 201.113C74.8721 200.934 75.3591 200.813 75.6528 200.691C75.968 200.555 76.3046 200.462 76.6269 200.34C77.0997 200.161 77.3074 199.366 76.9779 198.986C76.5553 198.492 76.1327 198.005 75.6886 197.489C75.9751 197.045 76.2187 196.608 76.5267 196.221C76.6341 196.092 76.9134 196.007 77.0853 196.035C77.5724 196.128 78.0451 196.293 78.525 196.429C79.1912 196.615 79.7642 196.128 79.6926 195.441C79.6711 195.247 79.6496 195.061 79.6352 194.868C79.5493 193.442 79.5493 193.428 80.9675 193.055C81.1322 193.013 81.4044 193.106 81.5262 193.235C81.8843 193.629 82.178 194.094 82.5361 194.488C82.6651 194.631 82.9014 194.71 83.102 194.753C83.8326 194.896 83.9615 194.259 84.2265 193.829C85.0072 192.554 85.0001 192.54 86.404 193.077C86.5615 193.134 86.7263 193.371 86.7478 193.543C86.8051 194.058 86.7621 194.581 86.8266 195.09C86.8552 195.312 87.0199 195.541 87.1775 195.727C87.5858 196.207 88.0084 195.878 88.4167 195.713C89.4911 195.269 90.3601 195.555 91.0239 196.572C90.6729 197.095 90.3219 197.597 89.9853 198.105L89.9495 198.084ZM78.8187 201.235C78.6468 203.706 80.7455 205.97 83.3813 206.149C85.9026 206.321 88.1588 204.236 88.3307 201.565C88.4883 199.036 86.4111 196.823 83.718 196.658C81.2182 196.508 79.0121 198.571 78.8187 201.228V201.235Z" fill="black"/>
<path d="M123.563 209.48C123.183 209.738 123.226 210.726 123.67 210.913C124.293 211.171 124.386 211.55 124.121 212.109C124.057 212.245 124.021 212.395 123.971 212.539C123.462 212.646 122.925 212.345 122.517 213.026C122.109 213.713 122.646 214.036 122.825 214.652C122.689 214.752 122.467 214.859 122.331 215.031C122.03 215.411 121.715 215.461 121.371 215.124C120.941 214.695 120.626 215.081 120.246 215.225C119.852 215.375 119.86 215.676 119.903 215.97C119.989 216.478 119.731 216.636 119.294 216.722C118.893 216.8 118.527 216.951 118.334 216.392C118.262 216.192 118.047 215.934 117.861 215.905C117.317 215.812 116.744 215.783 116.529 216.507C116.493 216.629 116.386 216.722 116.307 216.843C116.085 216.779 115.884 216.722 115.684 216.664C115.49 216.607 115.29 216.543 115.096 216.485C115.096 216.199 115.104 215.948 115.096 215.697C115.075 215.225 114.158 214.673 113.793 214.96C113.248 215.389 112.883 215.232 112.532 214.745C112.446 214.623 112.324 214.523 112.21 214.394C112.324 214.208 112.432 214.028 112.539 213.849C112.847 213.334 112.346 212.352 111.759 212.41C111.15 212.467 110.935 212.202 110.878 211.672C110.863 211.507 110.813 211.342 110.777 211.178C110.863 211.113 110.921 211.063 110.985 211.027C111.372 210.834 111.708 210.691 111.694 210.089C111.68 209.545 111.537 209.258 111.071 209.036C110.548 208.785 110.971 208.406 110.999 208.091C111.021 207.818 111.121 207.589 111.508 207.632C111.751 207.661 112.095 207.639 112.239 207.496C112.797 206.937 112.812 206.586 112.432 205.906C112.389 205.827 112.353 205.741 112.303 205.634C112.618 205.34 112.919 205.054 113.22 204.767C113.707 204.989 114.036 205.39 114.695 205.061C115.426 204.696 115.132 204.151 115.24 203.628C115.641 203.528 116.049 203.428 116.479 203.32C116.601 203.542 116.751 203.729 116.815 203.936C116.98 204.459 117.417 204.273 117.768 204.337C118.126 204.402 118.312 204.223 118.42 203.929C118.606 203.406 118.936 203.277 119.43 203.514C119.609 203.6 119.817 203.643 120.01 203.7C120.01 203.972 120.053 204.208 120.003 204.431C119.888 204.946 120.318 205.004 120.583 205.226C120.855 205.455 121.113 205.426 121.357 205.218C121.822 204.81 122.195 204.903 122.531 205.383C122.639 205.534 122.775 205.655 122.868 205.763C122.746 206.307 122.13 206.586 122.524 207.303C122.918 208.019 123.47 207.675 123.992 207.811C124.269 208.537 124.121 209.093 123.548 209.48H123.563ZM113.492 210.139C113.492 212.338 115.311 214.143 117.525 214.143C119.702 214.143 121.521 212.338 121.528 210.168C121.543 207.955 119.745 206.15 117.525 206.142C115.297 206.135 113.492 207.919 113.492 210.139Z" fill="black"/>
<path d="M131.578 171.136C131.213 171.286 131.055 171.093 130.847 170.892C130.31 170.362 129.558 170.355 128.935 170.892C128.706 171.093 128.519 171.229 128.19 171.035C127.882 170.856 127.889 170.663 127.925 170.376C128.018 169.61 127.502 168.951 126.772 168.765C126.564 168.715 126.335 168.514 126.234 168.321C126.077 168.027 126.256 167.805 126.542 167.633C127.18 167.246 127.366 166.451 127.073 165.778C126.994 165.599 127.008 165.305 127.101 165.133C127.23 164.89 127.438 164.732 127.81 164.875C128.555 165.169 129.2 164.847 129.587 164.159C129.68 163.994 129.959 163.837 130.145 163.844C130.36 163.858 130.661 164.009 130.747 164.188C131.127 164.976 131.606 165.226 132.43 165.09C132.624 165.054 132.889 165.226 133.075 165.37C133.304 165.556 133.318 165.785 133.132 166.064C132.688 166.752 132.81 167.368 133.497 167.855C133.798 168.07 133.784 168.278 133.727 168.586C133.655 168.929 133.469 169.001 133.168 169.03C132.423 169.101 131.943 169.653 131.972 170.441C132.008 170.713 131.993 170.985 131.585 171.15L131.578 171.136ZM130.016 165.692C128.978 165.685 128.104 166.559 128.125 167.597C128.147 168.621 128.992 169.445 130.024 169.438C131.062 169.431 131.879 168.607 131.871 167.569C131.871 166.53 131.048 165.699 130.024 165.692H130.016Z" fill="black"/>
<path d="M5.95866 312.495C5.59336 312.645 5.43578 312.452 5.22806 312.251C4.69086 311.721 3.93879 311.714 3.31564 312.251C3.08643 312.452 2.9002 312.588 2.57072 312.395C2.26273 312.216 2.26989 312.022 2.30571 311.736C2.39882 310.969 1.88311 310.31 1.15252 310.124C0.944801 310.074 0.715596 309.873 0.615319 309.68C0.457741 309.386 0.636807 309.164 0.923314 308.992C1.56079 308.606 1.74702 307.811 1.45335 307.137C1.37456 306.958 1.38889 306.665 1.482 306.493C1.61093 306.249 1.81864 306.092 2.1911 306.235C2.93602 306.528 3.58066 306.206 3.96744 305.519C4.06055 305.354 4.3399 305.196 4.52613 305.203C4.74101 305.218 5.04183 305.368 5.12779 305.547C5.50741 306.335 5.9873 306.586 6.81101 306.45C7.0044 306.414 7.26942 306.586 7.45565 306.729C7.68485 306.915 7.69918 307.144 7.51295 307.424C7.06887 308.111 7.19063 308.727 7.87825 309.214C8.17908 309.429 8.16475 309.637 8.10745 309.945C8.03583 310.289 7.8496 310.36 7.54877 310.389C6.80385 310.461 6.32395 311.012 6.3526 311.8C6.38841 312.072 6.37409 312.345 5.96582 312.509L5.95866 312.495ZM4.3972 307.051C3.35861 307.044 2.48477 307.918 2.50626 308.957C2.52775 309.981 3.37294 310.805 4.40436 310.797C5.44294 310.79 6.25949 309.967 6.25232 308.928C6.25232 307.889 5.42862 307.058 4.40436 307.051H4.3972Z" fill="black"/>
<path d="M115.991 196.872C115.411 196.872 114.831 196.757 114.293 196.507C114.071 196.406 113.971 196.141 114.078 195.919C114.186 195.697 114.451 195.604 114.666 195.704C115.984 196.313 117.66 195.926 118.469 194.816C118.648 194.565 118.784 194.279 118.856 193.964C118.398 193.892 117.953 193.749 117.552 193.591C117.008 193.384 116.456 193.119 116.063 192.639C115.64 192.123 115.447 191.278 115.898 190.647C116.456 189.881 117.588 189.938 118.362 190.433C119.078 190.891 119.587 191.679 119.758 192.596C119.787 192.746 119.809 192.904 119.816 193.054C120.568 192.868 121.205 192.102 121.363 191.185C121.442 190.712 121.42 190.196 121.291 189.645C120.374 189.63 119.565 189.458 118.899 189.244C117.975 188.943 117.38 188.327 117.316 187.603C117.273 187.123 117.488 186.651 117.903 186.321C118.419 185.913 119.128 185.777 119.73 185.977C120.532 186.242 121.162 186.923 121.678 188.062C121.771 188.277 121.857 188.484 121.936 188.692C122.179 188.649 122.423 188.577 122.652 188.47C122.745 188.427 123.576 188.033 123.855 187.088C123.97 186.687 123.977 186.25 123.87 185.763C122.452 185.977 120.511 185.39 119.637 184.445C119.092 183.857 119.099 183.306 119.2 182.948C119.372 182.41 119.823 182.074 120.475 181.988C121.499 181.837 123.125 182.396 123.777 183.413C124.056 183.843 124.278 184.266 124.45 184.667C125.195 184.33 125.89 183.693 126.255 182.955C126.513 182.432 126.728 181.601 126.269 180.663C126.162 180.441 126.255 180.176 126.47 180.068C126.692 179.961 126.957 180.054 127.064 180.269C127.551 181.272 127.551 182.332 127.05 183.342C126.577 184.294 125.696 185.104 124.729 185.505C124.887 186.157 124.88 186.765 124.715 187.324C124.321 188.649 123.154 189.208 123.025 189.265C122.752 189.387 122.473 189.473 122.194 189.53C122.33 190.16 122.351 190.755 122.251 191.314C122.029 192.603 121.127 193.641 120.009 193.899C119.93 193.921 119.852 193.935 119.773 193.942C119.68 194.444 119.486 194.909 119.193 195.31C118.476 196.292 117.237 196.843 115.991 196.843V196.872ZM117.144 190.955C116.929 190.955 116.736 191.02 116.628 191.17C116.449 191.421 116.55 191.822 116.757 192.073C117.022 192.395 117.459 192.596 117.882 192.76C118.211 192.889 118.577 193.011 118.935 193.076C118.935 192.975 118.913 192.868 118.892 192.768C118.763 192.087 118.398 191.514 117.889 191.185C117.667 191.041 117.388 190.955 117.144 190.955ZM119.171 186.78C118.928 186.78 118.663 186.866 118.469 187.023C118.34 187.123 118.19 187.295 118.211 187.532C118.247 187.954 118.756 188.262 119.185 188.406C119.708 188.577 120.353 188.735 121.019 188.764C120.976 188.656 120.933 188.549 120.883 188.441C120.482 187.546 120.016 187.016 119.465 186.837C119.379 186.808 119.279 186.794 119.178 186.794L119.171 186.78ZM120.826 182.862C120.747 182.862 120.661 182.862 120.589 182.876C120.288 182.919 120.109 183.026 120.052 183.205C120.038 183.263 119.973 183.499 120.288 183.843C120.919 184.523 122.473 185.01 123.576 184.903C123.433 184.581 123.247 184.251 123.025 183.9C122.659 183.334 121.628 182.862 120.826 182.862Z" fill="black"/>
<path d="M124.794 83.2034C123.232 82.6948 121.391 82.7306 119.758 82.5945C117.932 82.4441 116.22 82.6805 114.809 83.9841C113.835 84.8866 113.262 86.0541 113.061 87.2932C112.825 87.4938 112.617 87.7373 112.459 88.031C111.256 90.2872 111.65 94.2338 113.326 96.1319C115.532 98.6317 120.131 99.4053 123.175 98.3882C126.205 97.3711 128.597 94.6278 129.199 91.5049C129.865 88.0525 128.289 84.3565 124.801 83.2105L124.794 83.2034Z" fill="#E89F2B"/>
<path d="M142.686 84.6095C140.114 81.6871 125.345 72.2109 121.513 72.2109C115.604 72.2109 103.85 80.8849 98.843 85.247C96.3648 87.4101 96.0209 88.4343 97.9907 88.9715C102.303 90.1391 106.314 90.311 109.637 90.4399C115.281 90.6619 120.94 90.6906 126.584 90.4327C130.473 90.2537 137.084 89.9027 140.981 88.8928C143.76 88.1765 146.088 88.4916 142.678 84.6095H142.686Z" fill="#488C93"/>
<path d="M120.804 77.9046C120.41 60.3418 120.245 42.7646 120.324 25.1875L120.804 77.9046Z" fill="#488C93"/>
<path d="M121.537 78.3303C122.947 72.4874 122.845 81.9809 122.967 75.7973C123.096 69.1029 122.804 45.6352 122.825 38.9408C122.865 25.7648 123.523 12.2163 121.632 -0.714852C121.381 -2.43901 119.687 -2.41772 119.429 -0.714852C117.43 12.5143 118.176 26.4992 118.379 39.9944C118.481 46.6888 117.776 68.0492 118.074 74.733C118.338 80.6718 118.982 73.0089 120.493 78.5538C120.71 79.3414 121.388 78.9689 121.537 78.341V78.3303Z" fill="#488C93"/>
<path d="M122.451 73.8496C126.627 75.8551 130.559 78.2546 134.248 81.0552C134.8 81.4706 135.337 80.5395 134.792 80.1241C131.104 77.3235 127.171 74.9168 122.996 72.9184C122.372 72.6176 121.828 73.5487 122.451 73.8496Z" fill="#7DB4B7"/>
<path d="M113.031 91.9669C113.375 91.9669 113.375 91.4297 113.031 91.4297C112.687 91.4297 112.687 91.9669 113.031 91.9669Z" fill="#F4B251"/>
<path d="M113.134 93.4598C114.559 97.5425 119.122 98.9822 123.068 97.7359C123.398 97.6356 123.255 97.1127 122.925 97.2202C119.294 98.359 114.974 97.1271 113.649 93.3165C113.535 92.9942 113.019 93.1303 113.134 93.4598Z" fill="#F4B251"/>
<path d="M136.074 82.2072C136.769 82.2072 136.769 81.1328 136.074 81.1328C135.379 81.1328 135.379 82.2072 136.074 82.2072Z" fill="#7DB4B7"/>
</svg>
