<svg width="30" height="30" viewBox="0 0 30 30" fill="none" xmlns="http://www.w3.org/2000/svg">
<path d="M28.75 23.75C28.75 24.0815 28.6183 24.3995 28.3839 24.6339C28.1495 24.8683 27.8315 25 27.5 25H12.5C12.1685 25 11.8505 24.8683 11.6161 24.6339C11.3817 24.3995 11.25 24.0815 11.25 23.75C11.25 21.7609 12.0402 19.8532 13.4467 18.4467C14.8532 17.0402 16.7609 16.25 18.75 16.25H21.25C23.2391 16.25 25.1468 17.0402 26.5533 18.4467C27.9598 19.8532 28.75 21.7609 28.75 23.75ZM20 5C19.0111 5 18.0444 5.29324 17.2221 5.84265C16.3999 6.39206 15.759 7.17295 15.3806 8.08658C15.0022 9.00021 14.9031 10.0055 15.0961 10.9755C15.289 11.9454 15.7652 12.8363 16.4645 13.5355C17.1637 14.2348 18.0546 14.711 19.0245 14.9039C19.9945 15.0969 20.9998 14.9978 21.9134 14.6194C22.827 14.241 23.6079 13.6001 24.1573 12.7779C24.7068 11.9556 25 10.9889 25 10C25 8.67392 24.4732 7.40215 23.5355 6.46447C22.5979 5.52678 21.3261 5 20 5ZM8.75 5C7.76109 5 6.79439 5.29324 5.97215 5.84265C5.1499 6.39206 4.50904 7.17295 4.1306 8.08658C3.75216 9.00021 3.65315 10.0055 3.84607 10.9755C4.039 11.9454 4.5152 12.8363 5.21447 13.5355C5.91373 14.2348 6.80464 14.711 7.77455 14.9039C8.74445 15.0969 9.74979 14.9978 10.6634 14.6194C11.577 14.241 12.3579 13.6001 12.9073 12.7779C13.4568 11.9556 13.75 10.9889 13.75 10C13.75 8.67392 13.2232 7.40215 12.2855 6.46447C11.3479 5.52678 10.0761 5 8.75 5ZM8.75 23.75C8.74814 22.437 9.00682 21.1367 9.51105 19.9244C10.0153 18.7121 10.7551 17.6119 11.6875 16.6875C10.9244 16.3994 10.1157 16.2512 9.3 16.25H8.2C6.35776 16.2533 4.59192 16.9866 3.28926 18.2893C1.9866 19.5919 1.2533 21.3578 1.25 23.2V23.75C1.25 24.0815 1.3817 24.3995 1.61612 24.6339C1.85054 24.8683 2.16848 25 2.5 25H8.975C8.82947 24.5992 8.75338 24.1764 8.75 23.75Z" fill="white"/>
</svg>
