<svg width="8" height="14" viewBox="0 0 8 14" fill="none" xmlns="http://www.w3.org/2000/svg">
<path d="M4 7C5.83789 7 7.33333 5.50456 7.33333 3.66667C7.33333 1.82878 5.83789 0.333336 4 0.333336C2.16211 0.333336 0.666667 1.82878 0.666667 3.66667C0.666667 5.50456 2.16211 7 4 7ZM4 1.66667C5.10286 1.66667 6 2.5638 6 3.66667C6 4.76953 5.10286 5.66667 4 5.66667C2.89714 5.66667 2 4.76953 2 3.66667C2 2.5638 2.89714 1.66667 4 1.66667ZM6 7.70899H2C0.897135 7.70899 0 8.60612 0 9.70899V13C0 13.3682 0.298177 13.6667 0.666667 13.6667H7.33333C7.70182 13.6667 8 13.3682 8 13V9.70899C8 8.60612 7.10286 7.70899 6 7.70899ZM6.66667 12.3333H1.33333V9.70899C1.33333 9.34147 1.63216 9.04232 2 9.04232H6C6.36784 9.04232 6.66667 9.34147 6.66667 9.70899V12.3333Z" fill="#7C7F82"/>
</svg>
