<svg width="20" height="20" viewBox="0 0 20 20" fill="none" xmlns="http://www.w3.org/2000/svg">
<g clip-path="url(#clip0_148_900)">
<path d="M16.9722 9.49269C16.9477 9.37629 16.8904 9.26935 16.807 9.18451C16.7236 9.09968 16.6176 9.04051 16.5017 9.01401L16.4988 9.01333L11.2361 7.81563L11.2124 7.77352L13.1064 2.9233C13.1566 2.79554 13.1631 2.65476 13.125 2.5229C13.0868 2.39104 13.0061 2.27549 12.8955 2.19426C12.8258 2.14238 12.7464 2.10517 12.6619 2.08487C12.5712 2.06398 12.4769 2.06378 12.3861 2.08428C12.2953 2.10478 12.2103 2.14546 12.1374 2.20329L3.45899 9.01869C3.36632 9.0913 3.29607 9.18863 3.25634 9.29945C3.21662 9.41028 3.20905 9.53008 3.23449 9.64502C3.25994 9.75997 3.31737 9.86538 3.40016 9.94908C3.48295 10.0328 3.58772 10.0914 3.70237 10.1181L8.44083 11.2239L8.46097 11.2683L5.88922 16.8017C5.83011 16.9282 5.81507 17.0709 5.8465 17.207C5.87793 17.343 5.95401 17.4647 6.06262 17.5524C6.17122 17.6402 6.3061 17.6891 6.44573 17.6913C6.58536 17.6935 6.72171 17.6489 6.83303 17.5646L16.7366 10.1236C16.8322 10.0521 16.9052 9.95461 16.947 9.84275C16.9888 9.73089 16.9975 9.60938 16.9722 9.49269Z" fill="#FF7A00"/>
</g>
<defs>
<clipPath id="clip0_148_900">
<rect width="19" height="19" fill="white" transform="translate(0.5 0.5)"/>
</clipPath>
</defs>
</svg>
