<svg width="20" height="19" viewBox="0 0 20 19" fill="none" xmlns="http://www.w3.org/2000/svg">
<g clip-path="url(#clip0_148_794)">
<path d="M17.5438 8.22238L10.6616 6.3783C9.81691 6.15197 8.94871 6.65323 8.72238 7.49788L6.8783 14.3801C6.65197 15.2248 7.15323 16.093 7.99788 16.3193L14.8801 18.1634C15.7248 18.3897 16.593 17.8884 16.8193 17.0438L18.6634 10.1616C18.8897 9.31691 18.3884 8.44871 17.5438 8.22238Z" fill="#FF7A00" stroke="#FF7A00" stroke-width="1.78125" stroke-linecap="round" stroke-linejoin="round"/>
<path d="M4.45911 11.875H3.66744C3.24751 11.875 2.84479 11.7082 2.54785 11.4113C2.25092 11.1144 2.08411 10.7116 2.08411 10.2917V3.16672C2.08411 2.74679 2.25092 2.34406 2.54785 2.04713C2.84479 1.7502 3.24751 1.58338 3.66744 1.58338H10.7924C11.2124 1.58338 11.6151 1.7502 11.912 2.04713C12.209 2.34406 12.3758 2.74679 12.3758 3.16672V3.95838" stroke="#FF7A00" stroke-width="1.78125" stroke-linecap="round" stroke-linejoin="round"/>
</g>
<defs>
<clipPath id="clip0_148_794">
<rect width="19" height="19" fill="white" transform="translate(0.5)"/>
</clipPath>
</defs>
</svg>
