<svg width="20" height="21" viewBox="0 0 20 21" fill="none" xmlns="http://www.w3.org/2000/svg">
<g clip-path="url(#clip0_1120_4794)">
<path d="M9.48571 10.6894C11.5495 11.2424 13.6786 10.0131 14.2316 7.94939C14.7846 5.88565 13.5553 3.75649 11.4916 3.20351C9.42781 2.65053 7.29865 3.8798 6.74567 5.94355C6.19269 8.00729 7.42196 10.1365 9.48571 10.6894ZM11.0904 4.70069C12.3288 5.03252 13.0662 6.30983 12.7344 7.54822C12.4026 8.78662 11.1253 9.52408 9.88688 9.19225C8.64848 8.86042 7.91103 7.58311 8.24285 6.34472C8.57468 5.10632 9.85199 4.36887 11.0904 4.70069ZM11.5182 12.0873L7.02661 10.8838C5.78822 10.552 4.51091 11.2894 4.17908 12.5278L3.18889 16.2233C3.07812 16.6367 3.32312 17.0616 3.7369 17.1724L11.2228 19.1783C11.6366 19.2892 12.0612 19.0437 12.172 18.6303L13.1622 14.9348C13.494 13.6964 12.7566 12.4191 11.5182 12.0873ZM10.8754 17.4805L4.88666 15.8758L5.67627 12.929C5.78684 12.5163 6.2124 12.2703 6.62544 12.381L11.117 13.5845C11.53 13.6952 11.7756 14.121 11.665 14.5337L10.8754 17.4805Z" fill="#FF7A00"/>
</g>
<defs>
<clipPath id="clip0_1120_4794">
<rect width="16" height="16" fill="white" transform="translate(4.34315 0.995066) rotate(15)"/>
</clipPath>
</defs>
</svg>
